<?xml version="1.0" encoding="UTF-8"?>
<svg id="Layer_1" data-name="Layer 1" xmlns="http://www.w3.org/2000/svg" viewBox="0 0 2861.88 1640.47">
  <defs>
    <style>
      .cls-1 {
        fill: #000;
        stroke-width: 0px;
      }
    </style>
  </defs>
  <path class="cls-1" d="M404.43,499.58c-11.99-4.71-21.24-8.2-30.39-11.95-65.53-26.86-124.56-63.28-172.09-116.75-24.29-27.33-41.85-58.37-52.45-93.32-8.87-29.24-9.86-59.21-5.24-89.07,5.4-34.93,23.15-63.46,49.92-86.42,20.97-17.99,44.9-31,70.4-41.19,34.25-13.68,69.94-21.22,106.6-24.9,52.61-5.28,105.2-4.17,157.66.87,41.22,3.96,81.43,13.37,119.98,28.89,5.43,2.19,10.56,5.64,15.02,9.46,1.99,1.7,3.18,6.05,2.55,8.67-.9,3.81-5.03,3.74-8.35,2.84-3.84-1.05-7.61-2.43-11.32-3.89-49.63-19.56-101.22-27.16-154.42-27.44-38.39-.2-75.77,4.28-112.01,16.75-14.43,4.97-28.76,10.72-42.26,17.81-54.08,28.4-86.58,73.28-99.85,132.71-8.55,38.3-2.19,74.06,16.48,108.04,9.37,17.05,21.27,32.24,34.84,46.11,39.22,40.11,85.88,69.24,136.65,92.24,1.14.52,2.56.4,4.95.73,1.93-1.58,4.68-3.39,6.89-5.73,6.86-7.27,13.73-14.54,20.2-22.16,51.64-60.8,112.03-111.94,175.05-160.38,91.86-70.6,192.22-126.83,296.34-176.73,77.69-37.23,158.65-65.51,242.28-86.16,34.33-8.48,69.18-13.92,104.33-17.35,43.7-4.26,86.32,2.94,128.67,12.65,9.08,2.08,18.12,4.35,27.16,6.59,5.81,1.44,11.65,2.83,17.38,4.55,68.48,20.55,103.66,84.78,84.28,153.82-6.35,22.64-16.88,43.43-28.92,63.45-52.17,86.77-120.11,157.46-209.61,206.5-77.47,42.44-158.26,76.26-244.38,96.58-42.2,9.96-85.09,15.46-128.32,18.94-38.59,3.11-77.19,3.88-115.84,3.16-49.99-.93-99.85-4.26-149.43-10.67-39.61-5.12-79.11-11.13-118.66-16.71-5.9-.83-11.83-1.48-20.03-2.49-.84,1.34-2.23,3.6-3.67,5.83-47.14,73.41-83.91,151.34-103.08,236.92-8.32,37.14-14.82,74.51-13.17,112.8,1.55,36.1,5.89,71.81,19.4,105.61,5.9,14.76,12.78,29.43,21.38,42.75,28.14,43.58,69.83,65.92,120.12,74.58,45.96,7.91,90.17,1.54,133.52-14.07,28.94-10.42,56.18-24.33,82.43-40.25,45.16-27.41,86.66-59.74,125.79-95.07,23.23-20.98,45.38-43.16,68.21-64.59,8.39-7.87,14.79-17,20.13-27.09,35.84-67.69,71.79-135.33,107.68-202.99,2.19-4.12,4.13-8.37,6.35-12.46,29.23-53.86,75.35-84.89,134.01-98.69,23.52-5.53,47.41-6.34,72.89-4.17-.75,3.53-.72,6.78-2.08,9.28-110.02,201.72-214.35,406.58-333.3,603.38-33.44,55.32-67.64,110.12-105.27,162.72-31.92,44.62-68.51,85.06-108.57,122.43-72.34,67.49-156.02,115.17-250.47,144.56-59.31,18.46-119.41,32.72-181.27,38.9-13.24,1.32-26.6,1.75-39.91,2.09-57.42,1.5-114.56-1.07-170.99-12.86-32.74-6.84-64.28-17.24-94.22-32.21-8.25-4.13-16.1-9.07-24.42-13.79,1.41-10.21,3.65-19.04,7.98-28.75,3.67.54,7.51.63,11.07,1.68,46.1,13.66,93.14,22.53,140.84,28.16,74.53,8.81,148.86,9.04,222.87-5.09,12.43-2.37,24.92-4.38,37.31-6.91,46.24-9.46,88.79-27.89,128.28-53.53,67.94-44.11,125-99.34,169.93-166.89,35.08-52.73,67.04-107.35,97.95-162.58,32.2-57.54,63.98-115.32,95.91-173.02,1.89-3.41,3.48-6.98,5.51-11.1-5.48-1.98-7.78,1.83-10.33,3.99-55.68,47.14-116.88,86.01-180.64,121.08-43.53,23.94-89.5,41.05-138.54,49.47-59.47,10.21-117.88,7.92-175.16-13.31-70.82-26.25-120.9-73.65-149.81-143.36-24.95-60.16-30.34-122.32-18.65-186.21,11.62-63.53,35.37-122.66,64.77-179.76,23.82-46.27,51.08-90.47,80.57-133.32,4.48-6.51,8.68-13.21,14.57-22.2ZM536.78,506.55c7.88,2.17,12.94,3.83,18.11,4.94,73.07,15.76,146.8,26.08,221.72,25.79,23.96-.09,48.01-.4,71.85-2.49,49.1-4.3,97.68-12.57,145.83-23.11,47.46-10.38,94.62-21.84,140.21-39.07,86.82-32.82,162.78-81.59,224.58-151.44,18.59-21.02,35.29-43.38,48.87-67.99,14.96-27.09,25-55.79,28.72-86.63,5.59-46.4-15.35-86-57.12-106.95-6.5-3.26-13.47-5.75-20.45-7.82-40.15-11.94-81.19-14.37-122.61-9.92-25.13,2.7-50.18,6.37-75.15,10.32-43.46,6.87-86.33,16.36-127.31,32.85-120.57,48.51-228.75,116.38-322.17,207.12-63.78,61.95-119.9,130.29-169.39,204.1-1.77,2.64-3.09,5.58-5.68,10.31Z"/>
  <path class="cls-1" d="M2183.62,508.21c-1.06,3.87-1.35,6.51-2.45,8.74-13.49,27.42-27.1,54.77-40.87,82.55h-108.89c-2.49,3.95-4.95,7.08-6.62,10.59-62.67,131.71-129.09,261.56-195,391.66-10.27,20.28-17.51,41.72-22.38,63.95-5.07,23.18-4,46.43.13,69.51,3.33,18.56,14.05,27.3,32.91,29.03,14.48,1.33,27.74-2.61,40.36-9.12,22.13-11.41,41.64-26.59,58.51-44.67,35.46-37.98,70.16-76.69,105.22-115.05,4.54-4.97,8.14-10.11,9.74-17.01,18.04-78.03,58.35-143.84,111.94-202.2,48.63-52.95,103.48-97.88,168.36-129.81,25.18-12.39,50.96-22.96,78.77-27.94,21.1-3.78,42.25-5.01,63.65-2.82,25.49,2.6,47.46,12.93,66.19,29.92,26.26,23.82,25.47,58.03-1.37,81.81-.4.35-1.28.16-3.3.36-1.46-6.65-2.66-13.61-4.55-20.39-3.38-12.15-6.2-24.57-10.97-36.18-9.32-22.67-27.57-33.7-51.57-34.66-23.66-.95-46.32,2.89-66.91,15.97-18.67,11.86-36.35,24.78-50.73,41.71-9.48,11.17-19.1,22.27-27.78,34.05-53.46,72.57-100.91,148.81-139.35,230.47-13.71,29.13-23.3,59.45-27.24,91.5-5.27,42.87,15.89,73.11,45.37,90.83,12.29,7.39,25.91,10,40.35,8.22,16.83-2.08,32.31-7.51,46.46-16.95,22.36-14.92,42.09-32.72,58.52-53.96,22.42-28.98,44.5-58.22,66.54-87.5,3.56-4.73,6.93-9.92,8.97-15.42,9.74-26.31,22.51-51.18,35.41-76,9.82-18.91,19.09-38.14,29.59-56.67,7.86-13.85,16.1-27.82,26.26-39.97,34.88-41.71,80.02-57.87,133.71-50.51,10.63,1.46,15.9,4.33,26.6,13.95-2.12,2.35-3.98,5-6.38,6.99-12.52,10.37-21.98,23.3-30,37.14-16.02,27.66-32.11,55.31-46.84,83.66-18.72,36.04-36.39,72.63-53.98,109.24-10.73,22.32-17.56,45.98-21.38,70.49-3.04,19.48-.14,38.65,3.82,57.53,3.84,18.27,21.8,29.74,41.17,26.15,11.64-2.15,23.19-6.12,34.03-10.95,17.74-7.9,33.56-19.23,47.91-32.24,16.77-15.21,33.5-30.56,49.07-46.96,28.42-29.96,56.48-60.3,83.7-91.36,16.22-18.5,30.54-38.68,45.75-58.07,4.51-5.75,9.15-11.4,13.67-17.02,8.41-1.52,16.11-.94,23.3,1.23,2.23,4.6-.39,7.05-2.36,9.6-59.16,76.44-119.87,151.55-187.94,220.38-24.63,24.91-52.89,44.66-85.67,57.44-29.41,11.47-59.54,13.64-90.18,5.54-36.15-9.55-60.83-31.7-73.33-67.16-8.56-24.3-10.03-49.48-9.31-74.91.26-9.24.94-18.48,1.43-27.77-7.23-1.09-8.43,4.54-11.02,7.82-21.02,26.67-41.34,53.92-62.89,80.16-18.2,22.16-38.48,42.53-61.24,60.1-11.56,8.93-23.7,17.3-36.37,24.55-36.41,20.82-73.92,20.35-110.99,2.21-44.89-21.97-72.05-58.11-80.87-107.39-2.45-13.71-3.04-27.76-4.36-41.66-.44-4.59-.5-9.23-.72-13.63-5.79-2.15-7.53,2.38-10.07,5.07-31.61,33.36-62.91,67.03-94.82,100.1-17.15,17.78-36.5,33.1-57.5,46.24-28.9,18.09-59.79,28.99-94.46,26.85-6.64-.41-13.33-.37-19.98-.23-12.21.26-22.23-4.71-29.88-13.65-6.02-7.03-11.51-14.74-15.95-22.85-13.89-25.4-22.72-52.48-24.95-81.53-.81-10.57-1.75-21.13-2.6-31.3-5.93-3.48-7.62,1.84-9.96,4.2-22.61,22.69-46.56,43.85-71.83,63.51-44.07,34.28-92.18,60.7-146.17,76-47.29,13.4-94.69,13.5-142.14,1.65-42.54-10.63-75.33-35.75-101.24-70.46-14.76-19.78-21.12-42.91-25.09-66.7-7.64-45.77-2.19-90.25,14.93-133.3,3.44-8.65,7.27-17.18,11.45-25.5,39.76-79.11,94.03-146.72,162.23-203.06,45.27-37.4,97.07-62.98,152.57-81.08,33.38-10.89,67.67-14.69,102.42-6.84,10.34,2.33,20.89,4.88,30.46,9.27,34.38,15.78,51.49,45.01,38.49,89.36-4.35,14.83-12.53,27.88-21.82,40.19-13.74,18.21-30.05,33.87-47.8,48.06-44.01,35.2-92.81,62.26-144.37,84.57-42.85,18.54-86.83,33.96-132.22,44.81-14.11,3.37-21.76,10.59-26.56,23.48-6.29,16.91-12.34,33.8-13.58,51.97-1.22,17.93-2.59,35.86-3.21,53.81-.46,13.46,2.77,26.44,7.58,38.99,12.73,33.18,36.16,53.16,71.53,59.5,37.88,6.79,74.24.47,110.12-11.03,24.89-7.98,47.91-20.03,69.68-34.34,40.82-26.83,77.76-58.3,111.18-93.96,6.6-7.04,11.01-14.62,12.94-24.12,4.14-20.36,12.16-39.34,21.4-57.91,39.17-78.7,78.37-157.39,117.06-236.32,16.11-32.87,31.01-66.33,46.37-99.56,1.32-2.87,1.97-6.05,3.34-10.4-11.75-2.1-22.28-1.02-32.7-1.2-9.99-.18-19.99,0-29.98-.05-10.49-.06-21.01.3-32.08-.39.5-3.25.25-5.43,1.15-6.95,16.88-28.63,33.89-57.17,50.79-85.6,30.34-3.01,59.64.85,89.18-2.35,2.86-5.64,5.67-10.85,8.19-16.2,56.51-119.87,112.81-239.83,169.6-359.57,12.04-25.39,13.62-51.08,7.14-77.83-.92-3.78-1.86-7.56-2.7-10.94,4.23-3.76,6.92-.48,9.46.75,21.08,10.17,40.83,22.4,58.46,37.95,14.74,12.99,26.43,28.28,34.15,46.24,3.36,7.81,5.26,16.42,6.7,24.85,2.08,12.1-.58,23.41-5.88,34.76-46.28,98.92-92.19,198.01-138.1,297.1-3.27,7.06-7.67,13.85-8.48,23.49,4.98.67,9.33,1.72,13.68,1.75,25.32.17,50.64.02,75.96.17,5.06.03,10.12.86,16.32,1.43ZM1355.16,920.76c6.34-.73,9.59-.64,12.57-1.51,36.4-10.67,72.2-22.96,107.03-38.16,60.98-26.61,108.37-69.33,146.6-122.81,7.65-10.7,13.66-22.88,18.66-35.1,8.63-21.07,5.08-41.84-5.12-61.62-6.33-12.27-16.3-18.34-30.55-18.6-15.94-.29-30.71,2.98-43.15,12.74-16.72,13.12-33.67,26.24-48.72,41.18-60.97,60.52-109.22,130.48-149.74,205.95-2.48,4.62-4.12,9.68-7.57,17.94Z"/>
</svg>