<svg id="Layer_1" data-name="Layer 1" xmlns="http://www.w3.org/2000/svg" version="1.1" viewBox="0 0 1920 1080">
  <defs>
    <style>
      .cls-1 {
        fill: #000;
        stroke-width: 0px;
      }
    </style>
  </defs>
  <path class="cls-1" d="M255.56,282.35c-.16,1.31-.11,2.69-.5,3.93-7.54,24.1-12.61,48.74-16.3,73.68-2.5,16.9-4.18,33.89-5.51,50.92-2.41,31.06-3.28,62.15-2.57,93.28.42,18.6.97,37.2,2.49,55.75,1.16,14.16,2.13,28.33,3.58,42.46,2.19,21.36,5.02,42.64,8.68,63.81,3.63,21,7.9,41.85,13.38,62.45,4.13,15.53,8.96,30.83,15.24,45.65,3.11,7.33,6.49,14.53,10.91,21.16,2.52,3.78,5.39,7.36,8.3,10.86,1.84,2.21,4.19,3.91,6.87,5.11,2.48,1.12,4.99,1.27,7.28-.2,2.26-1.45,4.63-2.93,6.4-4.9,2.93-3.25,5.65-6.74,8.07-10.39,5.44-8.21,9.47-17.16,13.1-26.28,7.22-18.1,12.56-36.78,17.03-55.71,6.25-26.51,10.97-53.3,14.6-80.29,2.84-21.12,5.05-42.31,6.63-63.55,1.15-15.51,1.75-31.06,2.53-46.6,1.1-21.81,1.12-43.63.52-65.44-.44-15.71-1.43-31.42-2.52-47.11-.82-11.8-1.92-23.6-3.35-35.34-3.62-29.74-8.93-59.15-17.99-87.78-.5-1.57-1.29-3.04-1.94-4.56l-.06.03c.57.23,1.44.31,1.66.73.71,1.33,1.23,2.77,1.72,4.21,5.44,15.84,9.81,31.98,13.55,48.3,5.97,26.06,10.63,52.36,14.01,78.86,2.18,17.1,3.89,34.27,5.48,51.45,4.17,45.03,5.15,90.17,3.72,135.35-.44,14.02-1.62,28.02-2.55,42.03-.91,13.67-2.44,27.28-4.35,40.85-4.41,31.36-10.47,62.34-21.3,92.23-3.17,8.75-6.74,17.33-11.11,25.56-4.21,7.95-9.04,15.48-15.12,22.15-4.83,5.29-10.27,9.8-16.84,12.81-.56.26-1.03.72-1.57,1.11.88,1.26,1.95.72,2.82.65,7.59-.58,15.16-1.32,22.75-1.86,9.49-.68,17.14-4.6,22.9-12.27,4.09-5.43,7.57-11.2,10.45-17.34,6.05-12.91,10.41-26.42,13.97-40.18,4.96-19.16,8.8-38.57,11.4-58.19,2.06-15.59,4.02-31.19,5.65-46.83,1.14-10.93,1.67-21.92,2.45-32.88,1.67-23.63,2.29-47.31,2.53-70.99.18-17.93,0-35.86-.29-53.79-.21-13.19-.64-26.38-1.32-39.55-.67-13-1.65-25.99-2.74-38.96-.91-10.78-1.97-21.56-3.34-32.29-4.27-33.41-10.04-66.52-20.21-98.73-2.8-8.88-6.13-17.55-10.22-25.92-4.65-9.53-11.1-17.75-18.53-25.24-1.19-1.2-2.5-2.28-3.8-3.36-7.54-6.21-16.1-9.88-25.95-10.14-2.12-.06-3.86-.48-5.54-1.94-1.5-1.31-3.47-2.06-5.2-3.11-.81-.49-1.94-.69-2.04-2.12,1.63,0,3.29-.22,4.86.04,12.34,2.01,24.68,4.04,37,6.21,6.67,1.17,12.34,4.5,17.46,8.81,6.53,5.5,11.79,12.1,16.4,19.24,5.33,8.26,9.8,16.98,13.81,25.95.68,1.52,1.43,3,2.43,5.1,1.2-1.95,2.09-3.35,2.92-4.78,16.21-27.88,34.96-53.9,56.73-77.72,28.84-31.55,61.6-58.29,98.31-80.24,32.97-19.72,68-34.67,104.67-45.92,19.41-5.96,39.15-10.57,59.11-14.23,16.81-3.08,33.73-5.36,50.75-6.83,12.46-1.07,24.97-1.84,37.48-2.19,22.66-.64,45.33-.39,67.97,1.07,7.59.49,15.16,1.28,22.73,2.04,8.24.83,16.49,1.64,24.71,2.7,34.74,4.48,69.07,11.02,102.98,19.84,25.69,6.69,51.03,14.47,76.05,23.32,37.01,13.09,73.04,28.47,108.33,45.63,32.71,15.91,64.57,33.37,95.76,52.07,40.93,24.54,80.51,51.11,118.84,79.55,33.16,24.6,65.39,50.36,96.6,77.4,50.17,43.47,98.04,89.29,142.69,138.44,10.01,11.02,19.58,22.42,29.51,33.51,2.9,3.24,3.47,8.11.05,12.36-16.03,19.89-32.36,39.52-49.34,58.61-47.18,53.06-97.82,102.56-152.14,148.28-42.1,35.43-86.07,68.37-132.14,98.48-30.02,19.62-60.74,38.05-92.33,55.05-33.51,18.03-67.82,34.39-102.99,48.94-31.42,13-63.44,24.21-96.07,33.74-22.72,6.64-45.67,12.34-68.82,17.23-13.06,2.76-26.21,5.13-39.37,7.38-8.16,1.39-16.42,2.18-24.63,3.32-19.61,2.73-39.34,4.2-59.09,5.46-19.08,1.22-38.19,1.68-57.31,1.04-11.33-.38-22.67-.61-33.96-1.45-12.3-.92-24.57-2.35-36.83-3.78-15.63-1.82-31.06-4.76-46.45-8.03-36.52-7.77-71.71-19.49-105.57-35.21-33.92-15.74-65.3-35.54-94.24-59.22-41.98-34.35-76.09-75.33-103.09-122.31-.9-1.56-1.56-3.3-3.28-4.9-.82,1.61-1.53,2.88-2.13,4.21-4.25,9.42-9.07,18.52-14.79,27.14-3.94,5.95-8.52,11.33-13.77,16.19-5.74,5.32-12.7,8.22-20.01,10.43-.93.28-2.01.14-3.02.07-7.59-.56-15.18-1.13-22.76-1.74-4.55-.37-9.09-.86-13.64-1.22-1.33-.11-1.5-1.11-1.97-2.13-.76,0-1.6-.11-2.4.02-12.42,1.95-22.97-2.17-32.36-9.97-3.92-3.25-7.34-6.99-10.44-11.04-6.63-8.65-11.74-18.16-16.1-28.1-7.35-16.78-12.67-34.22-16.93-52-5.2-21.73-8.87-43.73-11.53-65.9-5.74-47.81-7.04-95.79-5.52-143.86.57-17.91,1.63-35.82,2.91-53.7,1.32-18.38,3.27-36.71,5.57-55.01,3.34-26.52,7.72-52.86,13.44-78.96,4.31-19.66,9.38-39.1,16.27-58.04.23-.62.59-1.19.9-1.78,0,0-.15-.12-.15-.12ZM423.65,727.49c-.46.69-.75.94-.82,1.24-3.83,15.08-8.09,30.03-13.52,44.62-.5,1.35-.5,2.61.31,3.87.74,1.13,1.38,2.33,2.08,3.49,11.74,19.45,25.15,37.7,39.94,54.93,32.27,37.6,70.01,68.56,113.22,92.81,32.27,18.11,66.28,32.09,101.86,42.29,41.63,11.94,84.12,18.64,127.3,21.16,16.55.97,33.13,1.33,49.71,1.09,6.26-.09,12.52-.13,18.77-.5,11.98-.71,23.96-1.58,35.93-2.5,8.26-.64,16.54-1.2,24.75-2.3,15.41-2.07,30.8-4.34,46.15-6.83,11.68-1.9,23.34-3.96,34.89-6.5,21.95-4.82,43.8-10.12,65.36-16.49,31.95-9.44,63.38-20.35,94.33-32.7,33.31-13.3,65.79-28.39,97.62-44.9,39.07-20.26,76.79-42.82,113.46-67.13,30.6-20.29,60.26-41.91,89.21-64.5,50.61-39.48,98.64-81.89,144.32-126.96,25.54-25.2,50.15-51.28,73.56-78.47,1.2-1.39,2.33-2.83,3.64-4.41-2.08-2.6-3.96-4.98-5.87-7.33-43.15-52.94-89.93-102.43-140.37-148.47-64.27-58.67-133.14-111.2-207.91-155.87-27.59-16.49-55.78-31.85-84.74-45.82-22.54-10.87-45.38-21.06-68.64-30.3-20.74-8.24-41.72-15.83-62.94-22.72-22.67-7.36-45.63-13.74-68.78-19.42-25.29-6.21-50.86-11.11-76.57-15.19-9.35-1.48-18.74-2.7-28.13-3.88-7.71-.97-15.45-1.75-23.19-2.53-4.37-.44-8.76-.75-13.15-1.05-12.48-.87-24.96-2.05-37.46-2.49-43.02-1.5-85.89.31-128.51,6.74-21.76,3.28-43.25,7.78-64.48,13.51-34.89,9.42-68.37,22.49-100.27,39.49-42.16,22.47-79.7,50.98-112.23,86.02-19.17,20.64-36.15,42.94-50.83,66.98-1.55,2.54-1.81,4.7-.81,7.56,2.69,7.65,5.17,15.38,7.41,23.18,5.18,18.05,9.05,36.4,12.35,54.89,3.15,17.65,5.72,35.39,7.68,53.2,1.46,13.27,2.43,26.61,3.52,39.92,1.88,22.94,2.48,45.94,2.31,68.95-.18,24.19-1.23,48.35-3.36,72.46-1.43,16.18-3.34,32.29-5.64,48.36-2.52,17.57-5.6,35.05-9.64,52.35-.3,1.26-.31,2.59-.49,4.15,3.8,1.07,7.35,2.06,10.9,3.08,16.51,4.73,33.42,6.83,50.52,7.69,14.27.71,28.36-.82,42.39-3.31,12.97-2.29,25.16-6.56,36.32-13.61,12.82-8.09,24.29-17.74,34.17-29.27,6.74-7.86,12.4-16.47,17.87-25.23,15.22-24.41,28.41-49.97,42.57-74.99.38-.66,1.11-1.36.4-2.5-.8.58-1.62,1.09-2.35,1.71-14.15,11.95-29.69,21.8-45.9,30.68-10.91,5.98-22.42,10.28-34.71,12.34-11.77,1.98-23.51,2.35-35.25-.52-26.11-6.38-43.02-22.29-50.5-48.18-4.2-14.52-3.84-29.04-.52-43.64,3.29-14.45,8.96-27.98,15.75-41.09,6.31-12.18,13.62-23.76,21.38-35.06.72-1.05,1.87-1.97,1.69-3.78-1.49-.63-2.99-1.35-4.54-1.92-8.78-3.2-16.98-7.57-24.88-12.5-8.68-5.42-16.35-12.06-22.83-19.95-8.74-10.64-13.78-22.68-13.74-36.74.04-13.58,5.54-24.15,16.37-32.09,4.66-3.42,9.77-6.04,15.14-8.16,12.44-4.92,25.47-6.63,38.73-6.95,9.14-.22,18.27-.05,27.37.9,10.81,1.13,21.34,3.47,31.45,7.54,1.08.43,2.1,1.09,3.04,1.79,1.26.94,1.64,2.34.96,3-.89.88-1.86.48-2.82.14-3.35-1.17-6.65-2.49-10.05-3.48-10.47-3.04-21.16-4.3-32.07-4.19-6.96.07-13.84.51-20.61,2.21-8.42,2.11-16.47,5.08-23.61,10.16-12.23,8.68-18.57,20.83-20.22,35.45-1.05,9.27,1.91,17.7,7.03,25.4,3.4,5.11,7.6,9.5,12.22,13.5,8.64,7.47,18.35,13.25,28.66,18.06.58.27,1.26.32,2.19.54,3.18-3.49,6.39-6.96,9.53-10.48,5.64-6.31,11.44-12.47,17.81-18.05,18.49-16.2,38.02-30.97,59.32-43.32,17.7-10.28,35.74-19.93,54.73-27.64,20.08-8.15,40.6-14.94,62.11-18.27,10.58-1.64,21.2-2.48,31.8-.39,7.62,1.5,15.19,3.28,22.74,5.12,2.28.55,4.48,1.54,6.59,2.58,7.38,3.62,12.23,9.47,14.62,17.31,2.12,6.98,2.32,14.02-.23,20.93-1.28,3.48-2.68,6.97-4.49,10.19-12.04,21.43-27.63,39.57-48.82,52.57-18.57,11.39-38.4,19.88-59.22,26.07-14.32,4.26-29.04,6.26-43.92,7.38-21.18,1.59-42.27.56-63.31-1.73-10.92-1.19-21.76-3.04-32.64-4.59-1.49-.21-2.99-.34-4.49-.51-.44.5-.82.84-1.09,1.26-11.59,18.05-20.74,37.17-25.76,58.14-3.26,13.6-5.03,27.24-2.97,41.22,1.27,8.61,3.44,16.89,7.76,24.51,5.49,9.71,13.54,16.28,24.18,19.69,5.51,1.77,11.18,2.67,16.95,2.83,10.51.29,20.43-2.35,30.01-6.42,11.12-4.72,21.22-11.18,30.86-18.4,11.94-8.95,22.9-19,33.46-29.52,2.54-2.53,4.67-5.28,6.35-8.46,9.13-17.36,18.42-34.63,27.48-52.03,5.69-10.93,13.84-19.09,25.27-23.85,9.04-3.77,18.42-5.2,28.17-4.14.38,1.92-.82,3.07-1.51,4.35-4.9,9.08-10.01,18.04-14.78,27.18-22.55,43.17-45.87,85.92-70.96,127.68-8.54,14.21-17.41,28.22-27.38,41.48-10.53,14-22.7,26.41-36.51,37.2-13.72,10.71-28.86,18.78-45.3,24.48-16.99,5.89-34.31,10.47-52.25,12-18.61,1.58-37.21,1.06-55.52-3.08-11.61-2.62-22.69-6.63-32.37-14.3ZM564.19,457.64c1.49.47,2.72.96,4,1.24,19.54,4.26,39.28,6.83,59.32,6.68,8.29-.06,16.56-.57,24.78-1.66,10.89-1.45,21.69-3.46,32.4-5.89,11.54-2.62,22.95-5.65,33.97-10.06,20.9-8.35,39.19-20.46,54.14-37.41,5.17-5.85,9.75-12.11,13.33-19.07,3.28-6.37,5.55-13.07,6.27-20.22,1.15-11.34-2.93-20.21-12.85-26.08-2.15-1.27-4.57-2.21-6.97-2.94-10.01-3.05-20.28-3.6-30.62-2.55-6.55.67-13.08,1.64-19.58,2.68-11.53,1.85-22.86,4.48-33.72,8.95-24.08,9.9-46.38,22.8-66.39,39.52-22.36,18.69-41,40.68-57.22,64.79-.35.52-.51,1.18-.86,2.01Z"/>
  <path class="cls-1" d="M241.04,500.45c.25-16.4.23-30.79.72-45.15.94-27.4,3.3-54.69,8.11-81.71,2.61-14.66,5.96-29.14,10.96-43.21,2.67-7.51,5.87-14.76,10.13-21.52,2.72-4.32,5.91-8.24,9.86-11.52,11.18-9.28,25.47-9.35,36.73-.15,3.83,3.13,6.94,6.9,9.63,11.04,5.19,8.01,8.78,16.75,11.76,25.76,4.53,13.67,7.63,27.69,10.08,41.87,2.79,16.17,4.89,32.45,5.93,48.82,1.1,17.38,1.81,34.79,2.26,52.2.55,21.14-.11,42.29-1.19,63.41-1.03,20.1-2.6,40.16-4.54,60.19-2.34,24.08-5.52,48.04-9.59,71.87-3.51,20.5-7.7,40.87-14.04,60.72-2.47,7.74-5.19,15.39-9.09,22.54-1.85,3.4-3.95,6.71-6.29,9.8-1.5,1.99-3.44,3.77-5.51,5.16-4.95,3.33-10.2,3.47-15.18.1-2.2-1.49-4.17-3.45-5.91-5.48-3.32-3.88-5.65-8.41-7.81-13.01-4.76-10.14-8.1-20.78-11.02-31.56-4.82-17.8-8.44-35.86-11.31-54.07-2.02-12.86-4.01-25.73-5.69-38.63-1.4-10.73-2.46-21.5-3.42-32.28-1.34-15.16-2.71-30.32-3.57-45.51-.98-17.22-1.42-34.47-2.01-49.7ZM348.81,508.29c-.21-41.8-1.6-77.43-7.73-112.72-2.4-13.84-5.46-27.52-10.13-40.79-2.53-7.2-5.61-14.14-9.84-20.53-2.26-3.41-4.88-6.49-8.15-8.97-9.14-6.93-19.35-6.51-27.97.46-3.32,2.69-5.97,5.96-8.27,9.55-4.77,7.47-8.02,15.62-10.71,24.01-6.27,19.57-9.59,39.74-12.09,60.06-2.38,19.32-3.37,38.75-3.96,58.19-.7,23.17-.09,46.34,1,69.49.3,6.42.66,12.84,1.19,19.24,1.11,13.48,2.18,26.97,3.59,40.42,1.32,12.61,3.01,25.17,4.64,37.75,1.02,7.88,2.43,15.71,3.29,23.6,1.7,15.64,3.95,31.19,7.31,46.56,2.31,10.58,5.13,21.02,9.08,31.12,2.23,5.69,4.89,11.15,8.51,16.1,1.61,2.2,3.43,4.18,5.78,5.63,3.36,2.06,6.77,2.1,10-.13,1.65-1.14,3.25-2.51,4.44-4.1,2.11-2.84,4.2-5.77,5.74-8.94,2.35-4.86,4.48-9.85,6.24-14.95,5.44-15.71,8.73-31.94,11.12-48.35,1.41-9.7,2.36-19.47,3.72-29.17,2.38-17.08,5.22-34.09,6.76-51.28,1.58-17.68,3.4-35.35,4.48-53.07,1.12-18.39,1.49-36.83,1.96-49.18Z"/>
  <path class="cls-1" d="M258.33,278.18c-.57,1.14-1.1,2.3-1.73,3.4-.2.34-.68.51-1.03.76,0,0,.15.12.14.12.31-1.76.52-3.6,2.61-4.27,0,0,0-.01,0-.01Z"/>
  <path class="cls-1" d="M350.85,278.63c-1.41-.07-1.67-1.01-1.63-2.17l-.13.13c.58.68,1.16,1.36,1.72,2.07-.02.03.05-.03.05-.03Z"/>
  <path class="cls-1" d="M350.5,283.24c.1-1.52.21-3.04.33-4.59.02-.02-.04.04-.02,0-.03,1.51.77,3.11-.35,4.59-.02.02.04-.01.04-.01Z"/>
  <path class="cls-1" d="M259.21,274.87c-.29,1.1-.59,2.2-.88,3.3,0,0,0,.02,0,.02-.05-1.17-.81-2.54.9-3.22v-.1Z"/>
  <path class="cls-1" d="M348.43,273.91c-.54-.67-1.09-1.33-1.63-2l.07.05c.5.68.99,1.37,1.47,2.07-.01.01.09-.12.09-.12Z"/>
  <path class="cls-1" d="M349.22,276.46c-1.03-.6-.85-1.59-.8-2.55,0-.01-.09.12-.08.11.26.84.5,1.7.75,2.56,0,0,.13-.12.13-.12Z"/>
  <path class="cls-1" d="M260.26,268.75c.2.07.41.15.61.22l-.06-.78c-.14.16-.27.32-.41.48,0,0-.14.08-.14.08Z"/>
  <path class="cls-1" d="M260.4,268.67c-.05.23-.1.46-.15.69.21-.06.42-.13.64-.19-.2-.14-.4-.29-.62-.43-.01,0,.13-.08.13-.08Z"/>
  <path class="cls-1" d="M346.8,271.91c.02-.3.03-.59.05-.89,0,.31.01.62.02.93,0,0-.07-.05-.07-.05Z"/>
  <path class="cls-1" d="M259.22,274.98c-.03-.41-.07-.82-.04-.46.02-.42,0-.06,0,.32.02.03.03.13.03.13Z"/>
  <path class="cls-1" d="M908.31,481.39h-24.25c.3-1.12.36-1.93.72-2.55,3.77-6.41,7.58-12.8,11.41-19.18.43-.71,1.01-1.32,1.71-2.23h21.73c.71-1.21,1.38-2.17,1.87-3.21,14.63-31.05,29.21-62.11,43.88-93.14,2.89-6.12,3.06-12.37,1.63-18.81-.25-1.12-.53-2.23-.81-3.4.63-.03.99-.16,1.24-.04,6.03,2.77,11.63,6.19,16.56,10.67,3.43,3.12,6.05,6.81,8.06,10.97,1.12,2.32,1.74,4.73,1.9,7.3.17,2.76-.28,5.29-1.48,7.85-11.25,24.04-22.4,48.13-33.57,72.2-1.35,2.9-2.66,5.81-4.15,9.09,1.25.34,2.14.79,3.03.8,6.26.07,12.52.03,18.78.06,1.67,0,3.34.1,5.35.17-.87,4.49-3.38,7.92-5.1,11.67-1.76,3.84-3.73,7.57-5.65,11.43-4.82.61-9.54.21-14.25.29-4.55.07-9.1.02-13.85.02-1.66,3.33-3.25,6.48-4.82,9.65-12.48,25.14-24.94,50.28-37.43,75.41-2.78,5.6-5.69,11.14-8.48,16.74-2.66,5.32-4.62,10.89-5.86,16.71-1.25,5.88-.98,11.79.12,17.64.84,4.47,3.46,6.66,7.99,7.15,3.66.4,7.04-.5,10.28-2.14,5.65-2.85,10.63-6.68,14.92-11.25,9.14-9.75,18.04-19.72,27.06-29.57,1.16-1.27,1.98-2.63,2.38-4.37,4.84-20.68,15.8-37.91,30.23-53.15,11.96-12.62,25.37-23.33,41.05-31.05,8.88-4.38,18.07-7.57,28.08-7.95,4.59-.18,9.13.05,13.56,1.39,4.28,1.3,7.99,3.61,11.32,6.56,7.13,6.33,5.27,16.02-.23,20.5-.23.19-.63.16-1.14.27-.65-2.94-1.22-5.91-1.99-8.83-.51-1.95-1.17-3.88-1.98-5.73-2.42-5.51-6.84-8.29-12.72-8.59-6-.31-11.76.6-17.02,3.88-4.77,2.97-9.27,6.22-12.94,10.51-2.42,2.82-4.88,5.63-7.08,8.62-13.68,18.55-25.83,38.04-35.64,58.94-3.4,7.24-5.78,14.78-6.79,22.74-1.25,9.94,2.57,17.5,10.76,22.95,3.34,2.22,7.1,3,11.14,2.48,4.27-.55,8.19-1.97,11.76-4.38,5.8-3.91,10.88-8.59,15.14-14.14,5.45-7.11,10.89-14.24,16.25-21.42,1.09-1.47,1.94-3.15,2.71-4.82,1.92-4.14,3.59-8.4,5.62-12.47,3.63-7.26,7.43-14.43,11.2-21.62,1.97-3.76,4.3-7.29,7.19-10.41,8.98-9.68,20.09-13.32,33.05-11.45,2.49.36,4.9,1.13,6.39,3.26-.08.41-.06.65-.16.73-5.27,4.44-8.77,10.21-12.16,16.08-6.93,12.02-13.16,24.4-19.08,36.94-1.8,3.82-3.77,7.59-5.19,11.55-1.42,3.96-2.39,8.09-3.31,12.2-1.18,5.24-.27,10.47.84,15.59.96,4.41,5.4,7.26,10.08,6.52,2.64-.41,5.24-1.32,7.74-2.3,3.96-1.55,7.5-3.92,10.77-6.61,3.38-2.8,6.78-5.64,9.83-8.79,7.77-8.01,15.53-16.05,22.94-24.39,5.38-6.06,10.21-12.61,15.28-18.95,1.16-1.44,2.32-2.88,3.43-4.25,2.22-.27,4.15-.1,6.55.47-.65,1.14-.96,1.89-1.43,2.5-15.02,19.41-30.43,38.48-47.73,55.94-6.13,6.19-13.18,11.09-21.32,14.33-7.63,3.04-15.43,3.61-23.37,1.48-8.96-2.41-15.14-7.93-18.33-16.71-2.17-5.98-2.6-12.21-2.49-18.5.04-2.03.24-4.05.32-6.08.02-.62-.09-1.24-.17-2.24-1.64.73-2.18,2.01-2.96,3.01-5.22,6.65-10.31,13.41-15.68,19.93-4.63,5.62-9.79,10.78-15.57,15.23-2.94,2.26-6.03,4.38-9.25,6.2-9.09,5.13-18.47,5.04-27.73.6-11.43-5.49-18.43-14.6-20.75-27.09-.68-3.64-.81-7.38-1.17-11.08-.11-1.13-.16-2.27-.23-3.35-1.81-.26-2.2,1.12-2.95,1.91-8.05,8.44-16,16.98-24.13,25.36-4.37,4.5-9.31,8.36-14.69,11.62-4.36,2.65-8.97,4.68-13.99,5.76-5.38,1.16-10.78.63-16.18.47-2.08-.06-3.93-1.19-5.29-2.74-1.55-1.77-3.07-3.63-4.23-5.66-3.72-6.54-6.08-13.55-6.71-21.1-.23-2.84-.48-5.68-.72-8.48-1.71-.29-2.24,1.01-3.01,1.78-5.62,5.65-11.59,10.88-17.88,15.76-12.31,9.55-25.78,16.75-41.08,20.18-11.8,2.64-23.53,2.16-35.04-1.54-9.87-3.17-17.41-9.53-23.28-17.94-3.47-4.98-4.89-10.74-5.8-16.62-1.88-12.18-.19-23.92,4.73-35.2,4.41-10.13,10.2-19.49,16.8-28.29,7.73-10.32,16.56-19.66,26.59-27.81,11.43-9.29,24.38-15.78,38.29-20.36,8.46-2.79,17.15-3.87,25.99-1.87,2.63.59,5.31,1.2,7.75,2.27,8.79,3.87,13.51,11.41,9.99,22.99-1.09,3.59-3.06,6.77-5.29,9.77-3.46,4.65-7.58,8.64-12.08,12.26-11.14,8.98-23.53,15.86-36.61,21.55-11.02,4.79-22.36,8.75-34.04,11.55-3.43.82-5.23,2.61-6.42,5.62-1.68,4.26-3.21,8.56-3.54,13.17-.34,4.72-.69,9.44-.84,14.17-.12,3.77.86,7.4,2.35,10.83,3.34,7.69,9.08,12.37,17.42,13.93,9.6,1.79,18.85.23,27.97-2.65,6.16-1.95,11.87-4.89,17.29-8.39,10.71-6.92,20.34-15.12,29.05-24.43,1.55-1.66,2.6-3.44,3.07-5.68,1.11-5.33,3.18-10.31,5.6-15.18,9.95-19.98,19.91-39.95,29.73-59.99,4.09-8.34,7.86-16.84,11.76-25.28.27-.59.41-1.25.88-2.7ZM772,562.81c1.29-.1,1.82-.05,2.29-.19,9.93-2.79,19.66-6.14,29.06-10.41,15.04-6.82,26.72-17.59,36.16-30.92,1.83-2.59,3.26-5.53,4.48-8.48,2.2-5.35,1.36-10.62-1.2-15.65-1.58-3.11-4.06-4.77-7.69-4.82-3.84-.06-7.39.68-10.57,2.87-1.67,1.15-3.42,2.22-4.91,3.58-4.36,3.99-8.83,7.9-12.84,12.22-12.02,12.94-21.99,27.39-30.7,42.72-1.17,2.05-2.23,4.17-3.26,6.3-.34.7-.46,1.52-.82,2.79Z"/>
  <path class="cls-1" d="M1230.73,257.68c-1.37-.65-2.54-1.2-3.92-1.85.43-3.54.84-6.88,1.25-10.22.41-3.35.93-6.7,1.19-10.06.26-3.31,1.43-6.55.81-10.5-2.1,1.98-2.7,4.3-3.75,6.3-1.18,2.24-2.22,4.56-3.32,6.83-1.03,2.13-2.02,4.28-3.12,6.37-1.08,2.06-1.79,4.36-3.47,6.27-1.15-.57-2.18-1.07-3.16-1.56.8-3.54,12.51-28.04,16.03-33.57,2.07.47,3.9,1.59,5.77,2.66.74,3.72-.55,7.14-.85,10.63-.32,3.7-.91,7.37-1.39,11.06-.46,3.5-.92,7-1.38,10.45,1.43.85,1.95-.33,2.56-.94,5.88-5.82,11.72-11.7,17.58-17.54,1.19-1.18,2.43-2.31,3.62-3.44,2.27.26,3.99,1.16,5.48,2.5-1.06,3.63-12.39,27.29-15.93,33.25-1.12-.43-2.29-.89-3.69-1.43.45-1.22.71-2.17,1.13-3.04,3.22-6.7,6.49-13.37,9.71-20.07.48-1,1.44-1.91.67-3.58-7.42,7.07-14.42,14.34-21.82,21.47Z"/>
  <path class="cls-1" d="M778.99,918.1c.91-.64,1.69-1.28,2.55-1.78,4.65-2.68,10.44-1.13,13.24,3.45,1.04,1.7,1.12,3.52.95,5.39-.46,5.05-.96,10.09-1.45,15.13-.2,2.02-.39,4.04-.65,6.05-.28,2.21-.95,4.3-2.32,6.08-1.02,1.33-2.29,2-4.25.86.17-.5.35-1.05.53-1.6.69-2.06,1.74-4.08,2.01-6.2.84-6.53,1.39-13.1,2.04-19.66.17-1.69.26-3.34-.67-4.92-2.24-3.79-6.86-3.94-8.95-.09-.85,1.58-1.25,3.49-1.48,5.3-.52,4.02-.8,8.07-1.2,12.1-.12,1.18-.25,2.35-.44,3.52-.87,5.24-4.09,8.68-9.01,9.66-5.12,1.02-10.57-1.31-13.13-5.63-1.16-1.96-1.55-4.08-1.31-6.34.58-5.37,1.06-10.76,1.75-16.12,1.08-8.39,10.44-12.75,17.7-8.28,1.42.87,2.68,2,4.1,3.07ZM776.68,923.83c.41-2.66-2.51-7.04-6.99-7.44-4.09-.37-8.18,3.11-8.5,7.04-.46,5.56-1.21,11.09-1.66,16.64-.35,4.3,2.49,7.87,6.39,8.4,4.48.61,8.11-1.89,8.74-6.39.79-5.69,1.28-11.42,2.02-18.26Z"/>
  <path class="cls-1" d="M1163.2,226.61c-2.27-.92-3.81-1.53-5.38-2.17-.56-2.67-1.07-5.14-1.59-7.6-.46-2.15-.93-4.29-1.41-6.43-.88-3.96-3.13-6.64-7.11-7.78-1.42-.41-2.81-.92-4.54-1.49-2.04,5.07-3.97,9.88-6.03,14.98-.86-.19-1.65-.28-2.37-.53-.6-.21-1.13-.61-1.65-.9,1.34-5.41,11.47-31.25,13.67-34.73,6.3,2.6,12.95,4.52,19.06,7.75,5.15,2.72,6.71,7.74,4.37,12.89-1.53,3.36-4.16,5.23-7.81,5.64-1.32.15-2.66.16-4.35.25,3,6.37,3.86,12.96,5.14,20.12ZM1145.01,196.47c2.92,1.98,11.3,5.38,14,5.69,3.12.37,5.75-1.17,6.85-4,1.07-2.76.14-5.66-2.84-7.3-4.25-2.33-8.8-4.01-13.75-5.31-1.74,3.69-3.1,7.27-4.27,10.9Z"/>
  <path class="cls-1" d="M741.11,167.27c-1.94.19-3.07.3-4.13.41-1.44-3.79-6.72-31.13-6.98-36.15.63-.28,1.34-.76,2.11-.91,5.3-1.03,10.62-2,15.94-2.96.99-.18,2.01-.28,3.02-.28,4.66,0,7.97,2.46,9.43,6.97,1.38,4.26.23,7.99-3.39,10.79-1.04.8-2.17,1.48-3.67,2.5,6.16,3.47,10.1,8.7,14.66,13.57-1.6,1.77-3.44,1.41-5.34,1.47-2.58-2.69-5.11-5.4-7.72-8.04-5.81-5.89-7.17-6.25-15.31-4.18-.31.08-.58.3-1.18.61-.25,2.02.4,4.12.76,6.23.54,3.14,1.13,6.26,1.8,9.96ZM735.14,134.42c.67,4.22,1.1,8.02,2.3,11.55.55.18.89.42,1.18.36,3.64-.65,7.3-1.25,10.91-2.07,1.44-.33,2.92-.96,4.12-1.81,3.44-2.45,3.27-7.8-.34-9.8-1.26-.69-2.93-1.12-4.34-.96-4.5.5-8.98,1.21-13.82,2.74Z"/>
  <path class="cls-1" d="M879.94,929.51c-.25-1.98-.4-3.65-.7-5.3-.2-1.15-.5-2.31-.93-3.39-.61-1.53-1.81-2.43-3.51-2.46-1.56-.03-3.16,1.22-3.64,3.01-.34,1.29-.41,2.66-.49,4-.08,1.33-.02,2.67-.02,3.73-1.05,1.51-2.18,1.09-3.19.99-.28-.48-.53-.75-.58-1.05-.34-1.99-.51-4.03-.99-5.99-.65-2.6-2.12-3.97-3.95-4.04-1.93-.08-3.57,1.63-4.02,4.47-.54,3.38-.3,6.74.87,9.99,1.18,3.29,3.78,5.14,6.89,6.25,2.05.73,4.22,1.18,6.38,1.56,2.66.47,5.36.7,8.02,1.13,2,.32,4.03.6,5.94,1.22,3.96,1.29,6.56,3.94,7.45,7.97-1.13,1.91-2.73,1.37-4.29,1.35-.3-.34-.75-.65-.93-1.08-1.86-4.4-5.44-6.18-9.92-6.77-4.54-.6-9.08-.69-13.65-.41-2.84.18-5.69.03-8.67.03-.05-.63-.1-1.27-.16-2.11,1.42-.31,2.69-.6,4.1-.91-.12-.48-.08-1.11-.36-1.35-5.08-4.18-6.35-9.76-5.84-15.95.12-1.49.48-3.03,1.07-4.39,1.52-3.47,5.34-5.01,8.89-3.66,1.25.48,2.37,1.27,3.79,2.06,4.3-3.85,9.03-4.7,13.96-.83,1.07-.72,1.99-1.47,3.02-2,4.92-2.57,9.69-.67,11.27,4.57.94,3.12.93,6.34.32,9.53-.34,1.81-1.03,2.16-4.06,2.24.12-1.47.3-2.92.33-4.37.06-2.53.18-5.07-.98-7.45-.63-1.29-1.51-2.21-3.02-2.39-1.64-.19-3.11.43-3.69,2.04-.57,1.55-.78,3.25-1.01,4.9-.12.82.08,1.68.08,2.53-.02,2.14-.29,2.32-3.78,2.31Z"/>
  <path class="cls-1" d="M867.18,122.36h4.85c1.9,3.16,3.82,6.32,5.72,9.51,1.99,3.34,3.94,6.71,5.95,10.04,1.88,3.11,3.55,6.38,6.26,10.03,1.85-9.92.81-19.1,2.4-28.28h3.42c.23.59.58,1.06.56,1.51-.54,11.14-1.11,22.29-1.7,33.43-.03.64-.3,1.27-.5,2.04h-4.57c-5.95-9.59-11.37-19.31-17.12-28.61-1.63.21-1.42,1.2-1.47,1.96-.39,6.92-.75,13.84-1.14,20.77-.08,1.49-.24,2.98-.38,4.64h-3.89c-1.13-4.07.18-8.06.22-12.04.04-4.22.33-8.45.58-12.67.23-4.03.54-8.06.82-12.31Z"/>
  <path class="cls-1" d="M977.9,162.45c1.39-1.77,1.41-3.47,1.68-5.08,1.08-6.49,2.15-12.99,3.27-19.47.17-.96.58-1.87.96-3.08,1.31.24,2.41.45,3.63.67.04.8.19,1.48.09,2.11-1.85,10.98-3.72,21.96-5.61,32.93-.08.46-.44.87-.8,1.54-1.28-.14-2.58-.27-4.18-.44-4.93-10.07-9.12-20.54-13.94-30.55-1.54-.05-1.55.91-1.68,1.68-1.1,6.49-2.17,12.98-3.27,19.47-.28,1.66-.65,3.3-.96,4.85-1.38,1.02-2.6.86-4.08-.06.07-1.22,0-2.55.23-3.83,1.89-10.77,3.46-21.59,5.69-32.61,1.75.28,3.19.51,4.65.74,5.06,10.26,9.11,20.79,14.32,31.13Z"/>
  <path class="cls-1" d="M1539.86,447.97c-3.29,2.31-5.16,4.72-7.31,6.79-2.31,2.23-4.53,4.56-6.8,6.83-2.14,2.14-4.3,4.25-6.86,6.78-1.03-1.06-1.84-1.88-2.21-2.26-.07-.98-.11-1.16-.08-1.32.02-.16.08-.34.19-.45,7.81-7.96,15.62-15.92,23.45-23.87.58-.59,1.25-1.1,1.99-1.75.66.43,1.22.75,1.73,1.14,1.49,1.14,1.94,2.55,1.53,4.45-1.16,5.45-2.17,10.93-3.24,16.4-.78,3.98-1.57,7.95-2.32,11.94-.15.8-.12,1.63-.21,3.08,4.36-3.02,7.25-6.73,10.57-9.94,3.26-3.15,6.42-6.39,9.79-9.76,1.11,1.02,1.94,1.79,2.99,2.75-2.2,3.55-5.44,6-8.17,8.89-2.9,3.07-5.93,6.03-8.91,9.02-2.85,2.87-5.71,5.73-8.52,8.54-3.94-2.2-4.14-2.53-3.41-6.32,1.79-9.29,3.63-18.57,5.43-27.85.13-.65.16-1.31.37-3.12Z"/>
  <path class="cls-1" d="M801.64,145.72c-3.79-.89-7.15.32-10.77-.18-.06-1.23-.12-2.32-.2-3.74,5.08-.41,9.87-.8,15-1.21.84,4.63,1.19,8.95,1.24,13.21-6.54,7.77-18.14,9.98-26.7,5.19-4.6-2.57-7.08-6.68-8.23-11.63-1.02-4.35-.89-8.7.53-12.99,1.7-5.16,5.07-8.68,10.22-10.45,3.57-1.23,7.21-1.62,10.97-1.02,5.31.86,8.97,3.61,10.62,8.73-.66,1.72-1.99,1.77-3.32,1.71-.33-.23-.73-.36-.85-.62-2.76-5.99-8.51-6.62-13.8-5.59-5.38,1.04-9.02,5.06-9.82,10.87-.44,3.19-.32,6.38.57,9.54,2.12,7.54,7.86,9.79,13.68,9.67,3.44-.07,6.6-1.28,9.45-3.26,1.2-.83,1.95-1.82,1.81-3.35-.14-1.5-.25-3-.4-4.87Z"/>
  <path class="cls-1" d="M641.8,164.51c-1.21,1.04-2.06,1.77-2.95,2.53-.75-.44-1.4-.69-1.89-1.13-6.22-5.62-19.07,1.71-18.98,10.23.07,6.7,2.75,12.11,8.02,16.15,3.36,2.57,7.25,2.56,11.12,1.34,4.96-1.56,8.32-4.93,10.58-9.8-.75-2.16-1.83-4.18-3.45-6.1-3.38.93-5.98,3.25-9.42,4.39-.59-.93-1.17-1.84-1.84-2.89,1.94-2.07,4.38-2.9,6.52-4.14,2.03-1.18,4.13-2.25,6.13-3.33,2.48,2.19,4.27,5.14,7.09,11.59-2.98,8.83-10.89,15.03-19.91,15.44-4.4.2-8.32-1.22-11.63-4.16-4.77-4.24-7.35-9.61-7.92-15.92-.42-4.62,1.05-8.66,4.17-12.08,3.04-3.34,6.81-5.58,11.18-6.59,4.95-1.15,9.33-.02,13.17,4.48Z"/>
  <path class="cls-1" d="M1027.13,157.71c-.07,4.47-1.05,8.71-3.43,12.53-3.66,5.88-9.11,8.3-15.89,7.9-6.77-.4-11.92-3.47-14.98-9.61-4.32-8.7-.72-19.35,3.52-23.74,5.23-5.41,11.57-6.64,18.6-4.42,7.21,2.27,10.98,7.47,12.04,14.8.12.83.1,1.68.14,2.54ZM1022.49,157.51c-.48-2.13-.7-4.35-1.49-6.35-1.86-4.7-5.66-7.09-10.54-7.57-4.5-.44-8.51,1.06-11.07,4.84-3.24,4.79-4.41,10.24-3.13,15.97,1.2,5.37,5.32,8.96,10.53,9.59,5.98.72,10.76-1.77,13.32-7.08,1.41-2.93,2.06-6.07,2.39-9.39Z"/>
  <path class="cls-1" d="M1097.26,176.63c-.07,3.83-1.49,8.61-4.61,12.82-4.77,6.43-11.33,7.94-18.45,6.3-7.38-1.7-12.53-7.58-13.29-14.85-.68-6.53,1.2-12.4,5.32-17.45,4.62-5.66,12.01-7.39,19.31-4.79,7.4,2.63,11.67,8.68,11.71,17.97ZM1065.58,178.44c.06,7.04,3.57,11.67,9.36,13.31,5.46,1.55,10.91-.49,14.07-5.45,2.62-4.11,3.75-8.66,3.27-13.54-.51-5.21-4.1-9.21-9.46-10.65-4.96-1.33-10.14.35-13.06,4.47-2.7,3.81-4.1,8.11-4.17,11.86Z"/>
  <path class="cls-1" d="M1375.04,343.39c-12.6-.02-21.16-12.04-16.99-23.9,1.74-4.94,4.86-8.88,9.15-11.8,6.13-4.18,13.59-3.87,19.87.65,6.26,4.5,8.85,11.53,6.89,18.67-1.39,5.05-4.17,9.21-8.22,12.47-3.1,2.49-6.61,4.04-10.7,3.92ZM1389.89,321.76c.05-9.3-10.44-15.75-18.41-11.11-5.34,3.11-8.86,7.88-9.92,14.05-1.44,8.39,6.99,15.89,15.31,14.08,6.58-1.43,13.3-10.64,13.03-17.02Z"/>
  <path class="cls-1" d="M688.66,153.49c-.12-7.3,3.93-13.49,10.69-16.31,9.35-3.9,18.55-.6,23.12,8.44,2.42,4.78,3.52,9.86,2.3,15.21-.33,1.47-.79,2.95-1.48,4.28-4.81,9.29-19.82,13.67-28.85,3.71-3.94-4.35-5.38-9.65-5.78-15.33ZM693.43,152.25c-.07,3.75,1.64,9.47,3.73,12.47,3.09,4.46,7.95,6.41,13.27,5.23,5.32-1.18,8.72-4.46,9.69-9.81,1.09-6.01-.74-11.41-4.52-16.06-3.31-4.07-8.8-5.29-13.83-3.45-4.96,1.81-8.24,6.39-8.33,11.62Z"/>
  <path class="cls-1" d="M1511.05,415.28c13.3.13,21.91,12.66,17.57,23.92-2.15,5.58-5.97,9.79-11.29,12.48-6.75,3.41-13.11,2.34-18.9-2.28-5.76-4.59-8.13-11.81-5.92-18.6,2.33-7.16,7.2-12.1,14.27-14.71,1.7-.63,3.61-.69,4.27-.81ZM1509.33,449.08c.34-.03,1.02-.03,1.68-.15.66-.11,1.34-.26,1.95-.52,6.09-2.64,10.3-7.03,11.96-13.53,1.26-4.94-.56-9.03-4.36-12.17-3.79-3.14-8.17-4.25-12.76-2.04-5.02,2.43-8.88,6.2-10.83,11.54-3.01,8.24,3.27,16.94,12.37,16.86Z"/>
  <path class="cls-1" d="M1095.2,884.56c2.93,5.86,2.84,8.59-.33,11.3-2.37,2.02-6.35,2.36-9.02.76-2.9-1.73-3.38-4.32-1.7-9.73-.75-.5-1.61-.99-2.37-1.6-4.72-3.85-3.85-9.82,1.74-12.02.47-.19.95-.34,1.44-.48,4.26-1.15,7.45.75,8.3,5.02.26,1.3.27,2.65.41,4.07.63,0,1.12.06,1.6,0,5.4-.76,9.13,1.73,11.73,6.18,4.37,7.49,2.48,14.66-5.02,19.05-4.29,2.51-8.94,4-13.97,3.95-5.87-.06-9.9-2.94-11.91-8.47-1.24-3.4-1.45-6.93-1.04-10.5.22-1.96,1.39-2.96,3.7-2.98,0,1.5.01,2.95,0,4.39-.03,2.9.25,5.75,1.49,8.41,1.82,3.9,4.82,6,9.2,5.9,4.54-.11,8.63-1.6,12.17-4.39,3.46-2.72,4.38-6.2,3.08-10.39-.81-2.62-2.05-5.01-4.05-6.92-1.51-1.44-3.2-2.46-5.45-1.55ZM1090.5,880.06c.03-2.44-1.62-4.11-4.09-4.15-2.33-.04-4.4,1.76-4.49,3.9-.1,2.38,1.93,4.38,4.51,4.46,2.23.07,4.04-1.8,4.07-4.22ZM1089.26,894.7c2.84.03,5.09-1.61,5.15-3.76.07-2.44-1.84-4.39-4.42-4.54-2.25-.13-4.19,2.08-4.13,4.72.05,2.12,1.42,3.56,3.4,3.58Z"/>
  <path class="cls-1" d="M945.53,149.1c-7.21-.4-13.62-1.99-20.51-2.06-.41,2.46-.85,4.75-1.14,7.06-.21,1.64-.23,3.31-.36,5.26,7.35,1.93,14.87,1.61,22.18,3.53v3.22c-.62.16-1.26.51-1.85.43-8.2-1.03-16.39-2.11-24.58-3.22-.29-.04-.53-.38-.79-.58-.09-4.3,3.28-31.11,4.6-36.26,4.32-.67,8.56.77,12.85,1.14,4.34.37,8.64,1.17,13.09,1.8v3.09c-1.5,1.22-3.05.66-4.49.49-3.69-.43-7.35-1.02-11.04-1.48-1.98-.25-3.98-.35-6.18-.54-1.01,3.72-1.53,7.15-1.58,10.91,3.1,1.5,6.5,1.36,9.78,1.82,3.32.47,6.63.97,10.23,1.5-.07,1.34-.12,2.42-.19,3.9Z"/>
  <path class="cls-1" d="M1184.97,222.64c1.19.44,2.24.84,3.41,1.27,0,.78.13,1.47-.02,2.1-1.63,6.86,7.64,12.88,13.76,11.96,4.22-.63,6.27-4.79,3.92-8.32-.92-1.38-2.21-2.55-3.45-3.68-2-1.82-4.19-3.43-6.13-5.31-1.31-1.28-2.58-2.73-3.43-4.34-3.33-6.27,1.94-12.53,6.93-12.98,6.79-.6,12.25,2.03,16.27,7.41,2.14,2.86,2.47,6.15.99,9.42-1.7.67-2.77-.11-3.87-1.02-.04-.47-.17-.97-.11-1.46.52-4.15-1.57-6.76-5.06-8.47-1.5-.74-3.11-1.32-4.73-1.75-1.71-.45-3.37,0-4.8,1.06-2.08,1.54-2.59,4.17-1.06,6.27.88,1.22,2,2.29,3.12,3.3,1.76,1.58,3.68,2.98,5.42,4.58,1.36,1.25,2.72,2.57,3.79,4.06,4.91,6.79-.29,14.05-5.73,15.2-.5.1-.99.24-1.49.32-6.36,1-15.53-3.89-18.1-9.8-1.38-3.18-1.78-6.45.36-9.82Z"/>
  <path class="cls-1" d="M1329.9,282.66c-1.34-.62-2.36-1.08-3.41-1.57,0-.68-.09-1.18.01-1.65.61-2.87.02-5.41-2.19-7.4-2.56-2.3-5.37-4.18-9.02-3.98-4.18.22-6.16,4.17-3.75,7.62,1.15,1.65,2.67,3.04,4.05,4.52,1.84,1.98,3.85,3.82,5.53,5.92,2.73,3.43,3.66,7.27,1.39,11.32-2.32,4.14-6.12,5.84-10.69,5.21-6.38-.87-11.44-4.15-14.57-9.83-1.99-3.6-1.81-7.43.3-11.28,1.25.53,2.31.97,3.39,1.42,0,.87.15,1.56-.03,2.16-1.06,3.51.26,6.31,2.56,8.79,2.13,2.29,4.78,3.81,7.83,4.39,1.26.24,2.73.15,3.95-.26,3.21-1.09,4.51-4.36,3-7.4-.59-1.19-1.48-2.26-2.39-3.25-1.72-1.86-3.6-3.57-5.31-5.45-1.24-1.37-2.46-2.81-3.42-4.38-1.92-3.14-2.03-6.4.06-9.55,2.05-3.09,5.05-4.61,8.65-4.29,5.88.52,10.6,3.37,13.85,8.31,2.09,3.18,2.38,6.62.17,10.62Z"/>
  <path class="cls-1" d="M1360.04,302.54c-1.09-.54-2.09-1.04-3.28-1.62.06-.73.02-1.38.17-1.98.95-3.83-.71-6.56-3.66-8.73-2.05-1.51-4.2-2.85-6.9-2.84-1.4,0-2.67.37-3.71,1.34-1.64,1.52-2.08,3.53-.94,5.5.84,1.44,1.92,2.77,3.02,4.04,1.54,1.79,3.26,3.43,4.78,5.24,1.08,1.28,2.11,2.66,2.9,4.13,3.75,7.04-1.73,13.65-7.76,14.28-1.49.16-3.09.14-4.52-.23-5.07-1.35-9.17-4.21-12.16-8.56-1.36-1.99-2.12-4.25-2.03-6.68.08-2.19.35-4.37,2.21-6.13,1.07.53,2.1,1.04,3.03,1.5.07.52.21.86.14,1.17-1.19,5.62.1,8.97,4.66,12.2,1.82,1.29,3.81,2.21,6.01,2.54,2.34.35,4.37-.4,5.8-2.32,1.06-1.43,1.52-3.1.64-4.76-.79-1.48-1.7-2.91-2.76-4.2-1.61-1.96-3.44-3.72-5.07-5.66-1.08-1.28-2.16-2.63-2.94-4.1-3.48-6.61,1.2-14.1,8.65-13.57,6.53.47,11.46,3.94,14.5,9.69,1.65,3.12,1.62,6.46-.78,9.76Z"/>
  <path class="cls-1" d="M680.98,158.72c.45,1.31.8,2.34,1.21,3.54-6.29,2.98-13.05,4.01-19.41,7.06.98,3.02,1.89,5.88,2.85,8.73.31.93.75,1.82,1.23,2.97,1.09-.23,2.06-.35,2.98-.64,4.98-1.57,9.95-3.2,14.93-4.78,1.11-.35,2.26-.59,3.68-.96.47,1.11.89,2.11,1.29,3.07-3.51,2.01-20.97,7.77-25.95,8.63-1.95-3.63-10.7-30.54-11.35-34.89,4.16-2.13,21.02-7.55,25.16-8,.27.99.55,2.03.92,3.37-6.92,2.3-13.59,4.52-20.42,6.8.01,2.16.79,3.83,1.37,5.54.59,1.74,1.19,3.47,1.89,5.5,6.62-1.5,12.64-4.13,19.6-5.95Z"/>
  <path class="cls-1" d="M1068.99,917.69c1.41-5.18-.26-9.77-1.78-14.4-1.32-4.01-2.51-8.06-3.8-12.08-.36-1.12-.72-2.27-1.29-3.29-1.21-2.16-3.35-3.17-5.5-2.76-2.27.43-4.19,2.49-4.29,5-.06,1.48.25,3.02.62,4.47.62,2.43,1.43,4.81,2.25,7.48-1.14.48-2.03.86-3.17,1.34-.47-.79-1-1.42-1.25-2.14-.78-2.23-1.46-4.5-2.18-6.75-.54-1.67-1.55-2.99-3.03-3.93-1.87-1.18-3.84-1.41-5.7-.07-1.77,1.27-2.6,3.08-2.34,5.28.08.66.35,1.3.55,1.94,1.86,5.97,3.74,11.92,5.57,17.9,1.01,3.3,2.95,6.01,5.58,8.32-2.11,1.76-3.81,1.62-5.5-.09-1.71-1.72-2.86-3.76-3.58-6.04-2.05-6.44-4.03-12.89-6.12-19.32-1.24-3.8-.43-7.2,2.5-9.66,2.8-2.34,6.22-3.37,9.92-1.8.61.26,1.2.56,2.1.98.67-.98,1.25-1.95,1.94-2.82,2.76-3.43,8.17-4.59,11.89-2.56,2.01,1.09,3.47,2.72,4.15,4.91,2.22,7.09,4.4,14.19,6.57,21.29.71,2.33.75,4.66-.15,6.96-.66,1.7-1.94,2.05-3.96,1.81Z"/>
  <path class="cls-1" d="M909.58,950.98c-3.49,1.2-3.94,1.13-5.3-.59-1.5-1.9-2.4-4.08-2.79-6.44-1.06-6.33-2.07-12.67-3.09-19.01-.08-.5-.12-1.01-.16-1.51-.51-6.75,3.67-11.02,10.39-10.51.98.07,1.96.44,2.87.84.9.39,1.71,1,2.71,1.61.7-.8,1.29-1.61,2.01-2.28,3.03-2.8,6.63-3.31,10.37-2.05,2.68.9,4.55,2.95,5.16,5.81.56,2.64.93,5.32,1.36,7.99.73,4.5,1.41,9.01,2.19,13.5.42,2.41.12,4.71-.58,7-.64,2.07-2.04,2.97-4.16,2.71-.17-.36-.49-.71-.41-.9,1.34-3.41,1.39-6.89.77-10.46-.92-5.33-1.71-10.67-2.57-16.01-.16-1-.3-2.02-.6-2.98-.88-2.79-3.16-4.37-5.68-4-2.48.36-4.58,2.5-4.69,5.22-.08,2.01.24,4.04.46,6.05.19,1.65.5,3.3.78,5.08-.87.34-1.46.66-2.08.78-.45.09-.95-.09-1.76-.18-.45-2.63-.9-5.26-1.35-7.9-.38-2.23-1.18-4.23-3.09-5.62-3.19-2.31-7.56-.51-8.06,3.42-.19,1.48,0,3.04.24,4.53.8,5.17,1.82,10.32,2.52,15.5.51,3.8,1.7,7.21,4.54,10.39Z"/>
  <path class="cls-1" d="M1382.43,718.75c.77-2.79,1.74-5.36,4.19-7.28,3.57-2.79,9.7-2.72,12.66,1.44,4.31,6.05,8.64,12.1,12.89,18.19,1.27,1.82,1.93,3.93,1.99,6.19.06,1.98-.83,3.15-3.06,3.56-.41-5.11-3.19-9.11-6.13-13.05-2.63-3.52-5.1-7.15-7.69-10.7-.79-1.08-1.63-2.21-2.7-2.98-3.28-2.39-7.35-.62-8.05,3.38-.3,1.74.03,3.37,1.03,4.83,1.15,1.67,2.36,3.3,3.48,4.98.64.96,1.18,1.99,1.85,3.14-.95.7-1.72,1.28-2.79,2.07-1.04-1.29-2-2.42-2.89-3.59-.92-1.21-1.67-2.58-2.72-3.65-1.03-1.06-2.25-2.03-3.56-2.71-2.01-1.06-4.03-.56-5.59.98-1.55,1.53-1.99,3.52-1.19,5.6.36.93.91,1.81,1.49,2.63,3.52,4.96,7.08,9.89,10.59,14.85,2.01,2.84,4.54,4.98,7.88,6.14-2.34,2.87-2.94,3.18-5.28,1.67-1.81-1.16-3.65-2.55-4.93-4.25-4.18-5.52-8.14-11.21-12.15-16.85-2.15-3.03-2.45-6.41-.69-9.56,1.82-3.24,4.72-5.25,8.73-5.04.83.04,1.66,0,2.64,0Z"/>
  <path class="cls-1" d="M1105.75,166.66c1.82.58,2.91.93,4.07,1.29.07.57.28,1.08.18,1.52-1.44,5.91-2.98,11.79-4.38,17.7-.58,2.46-1.05,4.96-1.29,7.47-.32,3.4,1.4,5.81,4.31,7.41.74.4,1.53.77,2.34.96,7.97,1.81,10.67-.24,12.59-6.36,1.72-5.47,2.9-11.11,4.34-16.66.58-2.26,1.23-4.5,1.94-7.11,1.54.43,2.74.76,3.76,1.05.14.69.33,1.04.26,1.33-1.84,7.54-3.43,15.16-5.63,22.6-2.61,8.78-8.21,11.68-17.15,9.56-.49-.12-1-.19-1.48-.33-7.97-2.39-11.4-7.63-9.73-15.75,1.66-8.08,3.82-16.07,5.9-24.67Z"/>
  <path class="cls-1" d="M1458.52,363.62c1.36,1.17,2.61,2.24,3.73,3.19-1.55,7.04-10.2,34.6-11.87,37.9-.15.03-.35.13-.44.07-1.09-.76-2.15-1.55-3.25-2.34.42-4.25,2.91-7.76,3.12-12.18-3.84-3.15-7.74-6.34-11.68-9.58-3.9,1.32-6.81,4.07-10.38,5.5-1.66-.26-2.76-1.18-3.46-2.64,3.03-2.49,23.26-14.28,34.23-19.92ZM1451.13,386.23c1.6-2.14,1.9-4.18,2.58-6.05.64-1.74,1.29-3.48,1.8-5.25.51-1.81,1.71-3.49,1.4-5.88-5.23,3.15-10.09,6.08-15.19,9.14,2.9,3.12,6.04,5.32,9.41,8.04Z"/>
  <path class="cls-1" d="M860.44,158.69h-5.06c-1.51-3.71-2.96-7.27-4.49-11.03-5.21-.35-10.24-.15-15.23-.17-1.72,1.56-1.99,3.64-2.72,5.49-.68,1.72-1.32,3.46-1.95,5.08-1.52,1.05-2.94.98-4.45.25,0-.5-.14-1.03.02-1.45,3.62-9.46,7.27-18.91,10.93-28.36.91-2.34,1.87-4.66,2.82-7.03h5.14c2.86,6.03,5.14,12.37,7.66,18.59,2.45,6.04,5.09,12.02,7.32,18.63ZM843.18,126.59c-1.83,1.73-1.76,3.93-2.58,5.72-.77,1.68-1.45,3.43-1.96,5.21-.53,1.86-1.93,3.55-1.42,5.93,1.94.05,3.78.17,5.62.13,1.97-.05,3.99.39,6.25-.57-1.71-5.58-3.87-10.85-5.91-16.41Z"/>
  <path class="cls-1" d="M1259.67,271.75c10.24-7.97,20.47-15.95,30.91-24.08,1.57.9,2.99,1.71,4.62,2.64-1.87,13.18-4.06,26.12-6.09,39.21-2.18.2-3.35-.91-4.59-2.26.58-3.78,1.17-7.59,1.8-11.64-4.46-2.95-8.86-5.66-13.71-8.2-3.08,2.44-6.09,4.83-8.93,7.08-1.89-.32-3.22-.86-4.01-2.75ZM1286.64,271.08c1.75-4.59,3.42-13.92,3.2-17.12-3.03,1.76-10.76,8.03-13.23,10.79.65.51,1.25,1.07,1.94,1.49,2.57,1.57,5.17,3.09,8.1,4.83Z"/>
  <path class="cls-1" d="M1218.97,835.13c-2.34,1.02-4.44,2.05-6.62,2.87-3.24,1.21-5.97.29-8.13-2.36-2.57-3.16-2.97-6.82-1.14-9.89,2.07-3.46,7.36-5.94,11.34-5.34,1.6.24,2.82,1.09,3.85,2.25,1.94,2.19,3.22,4.74,3.87,7.59.33,1.47.63,2.95.96,4.5,1.62.18,2.03-1.15,2.8-1.85,2.47-2.25,5.31-3.57,8.66-3.71,4.34-.18,7.49,1.76,9.44,5.57,2.02,3.95,2.04,7.94-.91,11.39-3.39,3.96-7.87,5.74-13.12,5.11-4.51-.54-7.35-3.19-8.66-7.45-.54-1.77-.75-3.64-1.21-5.44-.28-1.12-.76-2.18-1.13-3.23ZM1241.61,841.98c.02-2.93-.82-4.75-1.92-6.48-1.64-2.57-4-3.56-6.94-2.92-3.33.71-5.83,2.58-7.14,5.8-1.79,4.42,1.1,9.15,5.85,9.64,3.42.35,6.35-.8,8.66-3.24.86-.91,1.23-2.28,1.49-2.79ZM1217.38,829.94c-.27-2.41-1.39-4.38-3.61-5.64-1.07-.61-2.19-.7-3.4-.31-2.25.73-3.94,2.07-4.32,4.45-.42,2.58.9,4.56,2.88,6.05,1.73,1.3,3.65,1.7,5.66.56,1.94-1.1,2.73-2.87,2.78-5.12Z"/>
  <path class="cls-1" d="M1414.28,360.15c.99,1.24,1.71,2.13,2.37,2.95-.22.47-.28.89-.51,1.05-6.36,4.55-12.52,4.56-18.66.05-7.03-5.16-9.02-11.95-5.84-20.06,1.69-4.34,4.32-8.02,7.97-10.91,8.18-6.48,20.04-4.36,25.54,4.52,1.27,2.05,2.06,4.25,2.03,6.69-.02,1.99.17,4.05-1.38,5.94-1.12-.44-2.17-.85-3.09-1.2-.21-.49-.45-.79-.45-1.1-.01-.67.04-1.35.15-2.01.79-4.81-1.38-8.17-5.31-10.57-3.92-2.39-8.01-2.62-11.97-.17-5.09,3.15-8.42,7.75-10.03,13.49-1.29,4.57.45,8.33,3.85,11.31,3.32,2.91,7.17,3.59,11.32,1.95,1.24-.49,2.41-1.15,4.03-1.93Z"/>
  <path class="cls-1" d="M1423.58,707.28c-.53-.63-.94-1.12-1.28-1.53.18-.49.21-.87.41-1.07.97-.94,2.04-1.77,2.98-2.74,1.77-1.84,2.2-3.79,1.32-5.5-.9-1.76-2.7-2.44-5.28-1.9-1.15.24-2.25.81-3.4.96-1.14.15-2.38.15-3.47-.18-.64-.19-1.29-1.06-1.51-1.76-.26-.85,1.63-2.45,2.41-1.96,2.57,1.6,4.88.34,7.28-.26,4.73-1.18,7.94,1.24,8.09,6.15.03.83-.07,1.66-.11,2.54.58.21,1.03.52,1.49.52,2.92,0,5.26,1.07,6.91,3.52,1.86,2.76,2.77,5.76,2.29,9.12-.32,2.24-1.24,4.21-2.61,5.98-2.64,3.4-5.95,6.02-9.89,7.73-4.88,2.11-9.64,1.72-13.9-1.53-1.99-1.52-3.83-3.35-5.39-5.31-3.76-4.72-5.97-10.18-6.86-16.15-.32-2.12-.07-4.07,2.87-4.78.27,1.1.63,2.17.79,3.27.81,5.46,2.7,10.5,6.16,14.81,1.57,1.95,3.51,3.64,5.46,5.23,1.59,1.3,3.58,1.83,5.68,1.89,5.79.16,12.2-4.57,13.76-10.14.92-3.28-.08-6.03-2.3-8.38-1.92-2.03-4.71-2.41-7.49-1.09-1.49.71-2.87,1.66-4.41,2.57Z"/>
  <path class="cls-1" d="M1116.14,865.61c-1.36.81-1.17,2.32-1.65,3.53-.48,1.21-1.11,2.5-2.03,3.38-1.52,1.44-3.5,2.1-5.63,1.57-2.13-.53-3.41-2.02-4.2-4.28.91-.51,1.74-.98,2.39-1.35.46.11.7.1.76.2,2.52,3.83,5.17,2.54,5.95-1.52.1-.49.3-.97.49-1.44,1.23-2.97,2.51-3.67,5.95-3.24.49.06.97.21,1.6.35.66-.95,1.2-2,1.98-2.82,3.38-3.62,9.47-3.4,11.75.94,3.61,6.86,6.75,13.99,9.71,21.16,1.58,3.82,0,7.34-2.83,10.14-2.46,2.42-5.48,3.92-8.91,4.49-6.43,1.05-11.79-2.61-13.16-8.99-.49-2.26-.29-2.56,2.8-4.02.6,1.69,1.07,3.43,1.84,5.03,1.69,3.53,5.08,5.31,8.69,4.76,3.91-.6,6.99-3.42,7.79-7.02.39-1.75.06-3.42-.63-4.95-2.64-5.85-5.39-11.65-8.11-17.47-.68-1.45-1.8-2.43-3.33-2.91-1.93-.61-3.98.62-4.01,2.65-.02,1.48.37,2.99.77,4.43.39,1.42,1.01,2.77,1.62,4.38-1.13.55-1.99.96-2.73,1.32-.5-.33-.89-.44-1.02-.69-.95-1.79-1.8-3.63-2.77-5.41-.66-1.19-1.45-2.33-3.08-2.23Z"/>
  <path class="cls-1" d="M1478.64,640.24c.47,1.73.84,3.19,1.27,4.64,1.45,4.94,3.82,9.37,7.39,13.11.7.73,1.43,1.44,2.21,2.08,7.45,6.17,16.81,4.14,21.07-4.6,1.59-3.26,1.65-6.53-.5-9.6-2.32-3.31-5.87-4.04-9.33-1.91-1.27.79-2.41,1.79-3.82,2.86-.61-.58-1.15-1.1-1.8-1.73,1.45-1.73,2.89-3.17,3.99-4.83,1.5-2.26.75-4.71-1.57-6-1.13-.63-2.25-.58-3.41-.12-1.41.56-2.8,1.17-4.24,1.64-1.97.65-3.65.31-4.9-1.83.64-.71,1.29-1.42,2.12-2.34,2.09,1.21,4.05.88,6.21,0,6.43-2.66,9.48-.65,10.02,6.31.03.32.21.62.35,1.02.43.07.92.27,1.38.21,7.31-1.01,12.2,8.74,9.77,14.79-2.66,6.63-7.46,11.13-14.32,13.31-2.89.92-5.72.49-8.39-.72-1.67-.76-3.3-1.74-4.73-2.9-5.7-4.62-9.3-10.64-11.21-17.66-.58-2.14-.88-4.44,2.43-5.75Z"/>
  <path class="cls-1" d="M723.98,924.87c4.39-.1,8.16.53,11.05,3.94,2.54-1.14,5.02-2.08,7.81-1.8,4.69.48,7.8,3.42,8.18,8.12.33,4.2-.98,8-3.09,11.56-1.28,2.16-1.65,2.21-5.28,1.21.78-1.3,1.63-2.49,2.26-3.79,1.57-3.24,2.66-6.59,1.83-10.26-.68-3.01-2.22-4.67-4.44-4.85-2.42-.19-4.65,1.39-5.62,4.23-.54,1.57-.8,3.23-1.26,5.19-1.16-.13-2.24-.25-3.3-.38,0-1.6.06-2.94-.02-4.26-.06-1.17-.06-2.41-.45-3.48-1.34-3.65-5.64-4.49-8.11-1.52-1.04,1.25-1.79,2.87-2.24,4.45-1.1,3.84-.88,7.68.74,11.38-2.72,1.03-3.63.8-4.26-1.32-.47-1.6-.89-3.3-.87-4.95.03-2.86.32-5.72.67-8.56.62-5.11,3.48-8.71,8.02-10.94,1.95-.96,4.07-1.6,6.14-2.33,3.94-1.39,8.21-1.97,11.36-5.21.83-.85,2.21-.58,3.38.53-.17,2.37-1.82,3.81-3.79,4.78-1.95.95-4.07,1.6-6.16,2.25-2.42.75-4.91,1.25-7.3,2.06-1.41.48-2.74,1.27-4,2.08-.47.3-.67,1.03-1.2,1.9Z"/>
  <path class="cls-1" d="M1259.19,816.07c-1.21-3.47-2.97-6.51-4.83-9.47-1.19-1.89-3.29-2.34-5.39-2.13-4.5.45-7.51,4.5-6.76,8.98.08.5.32.96.43,1.46.11.47.16.95.27,1.68-.87.45-1.73.9-2.76,1.44-2.5-2.76-2.96-5.72-1.58-8.93,2.73-6.4,9.31-8.76,15.03-7.63,2.08.41,3.7,1.68,4.7,3.57,3.17,5.97,6.48,11.88,9.41,17.97,2.56,5.31.99,9.97-3.96,13.12-.99.63-2.07,1.15-3.17,1.56-5.14,1.93-9.94.27-12.69-4.33-2.78-4.66-1.91-10.34,2.31-13.7,1.42-1.13,3.18-1.88,4.88-2.58,1.22-.5,2.59-.64,4.12-1ZM1264.97,828.47c0-1.98-.67-3.82-2.03-5.71-2.16-3-4.67-3.81-7.87-2.54-3.78,1.5-5.42,4.15-4.82,7.83.33,2.07,1.3,3.82,2.73,5.3,1.51,1.56,3.36,2.13,5.53,1.68,1.88-.38,3.48-1.26,4.83-2.58,1.14-1.1,1.7-2.49,1.64-3.99Z"/>
  <path class="cls-1" d="M1166.96,873.59c-1.35.52-2.26.88-3.31,1.29-.52-.96-1-1.83-1.46-2.71-.39-.75-.69-1.55-1.15-2.25-1.61-2.47-4.16-3.47-6.5-2.63-2.03.73-3.42,3.03-3.17,5.8.36,3.98,2.03,7.46,4.73,10.4.79.86,1.75,1.55,2.67,2.35-3.17,1.87-3.86,1.96-5.68-.14-3.59-4.15-6.03-8.97-7.03-14.38-.71-3.83.38-7.42,2.71-10.5,1.72-2.28,3.7-4.38,5.63-6.5,2.15-2.37,4.49-4.55,5.3-7.87.38-1.52,1.74-1.88,3.43-1.59.99,2.85-.1,5.26-1.91,7.35-2.09,2.42-4.46,4.6-6.61,6.97-1.47,1.61-2.84,3.33-4.1,5.1-.41.58-.36,1.5-.66,2.98,4.03-2.05,7.53-3.77,11.57-2.03.84-.99,1.5-1.95,2.34-2.72.98-.9,2.03-1.8,3.2-2.43,4.76-2.56,9.43-1.28,12.18,3.4,2.4,4.08,3.02,8.51,2.2,13.38-1.03.44-2.06.87-3.06,1.3-.28-.5-.55-.77-.56-1.04-.06-1.85.06-3.72-.13-5.56-.37-3.46-1.68-6.55-4.38-8.86-3.16-2.69-7.35-1.13-7.92,2.99-.18,1.29.08,2.68.34,3.98.23,1.14.75,2.22,1.34,3.89Z"/>
  <path class="cls-1" d="M1204.18,865.86c-.31-7.91-2.64-15.27-6.2-22.25-1.06-2.09-2.33-4.14-3.86-5.91-2.46-2.84-5.95-3.21-9.18-1.37-2.23,1.27-3.58,3.17-3.49,5.75.06,1.83.29,3.73.85,5.46,2.69,8.27,6.46,15.95,13.26,22.26-.76.52-1.33,1.19-1.98,1.28-.75.1-1.74-.08-2.32-.53-1.18-.93-2.26-2.04-3.19-3.23-4.51-5.79-7.87-12.21-9.94-19.25-2.4-8.16-.01-13.04,8.67-15.83,4.63-1.49,8.17-.35,11.22,3.52,1.04,1.32,1.93,2.78,2.73,4.26,3.08,5.68,5.32,11.67,6.5,18.03.3,1.65.46,3.35.44,5.02-.02,1.88-.54,2.21-3.52,2.77Z"/>
  <path class="cls-1" d="M1027.69,891.17c.94,1.64,1.09,3.23,0,4.4-.85.92-2.19,1.61-3.43,1.89-1.44.32-3.01.07-4.52.06-1.34,0-2.7-.16-4.02,0-1.94.25-2.99,1.58-2.82,3.53.12,1.33.49,2.64.79,3.96.52,2.29,1.08,4.57,1.7,7.2,1.25-.59,2.25-1.08,3.27-1.52,3.15-1.37,6.31-2.26,9.79-1.07,4.52,1.54,7.24,5.31,7.31,10.41.06,4.49-2.36,8.1-6.85,9.54-2.03.65-4.31.99-6.44.84-5.17-.37-7.51-2.45-8.79-7.53-1.57-6.21-2.98-12.46-4.45-18.69-.15-.65-.27-1.33-.32-2-.28-3.39,1.23-5.94,4.45-7.1,1.4-.51,2.96-.78,4.45-.8,3.61-.06,7-.73,9.89-3.1ZM1023.85,927.35c4.36.22,7.6-2.25,7.85-5.99.34-5.13-2.36-9.14-6.29-9.32-4.51-.21-8.11,2.51-8.28,6.25-.23,4.97,2.65,8.86,6.72,9.06Z"/>
  <path class="cls-1" d="M1529.98,643.08c-1.9,2.39-2.08,2.54-3.9,1.79-1.39-.57-2.76-1.27-4.02-2.1-5.97-3.95-11.02-8.88-15.23-14.67-.69-.95-1.32-1.97-1.85-3.01-2.36-4.6-1.95-8.24,1.58-12.07,1.35-1.46,2.99-2.74,4.7-3.77,2.97-1.78,6.13-1.74,9.16-.07,1.46.81,2.86,1.8,4.12,2.91,5.12,4.49,9.37,9.71,12.78,15.59.84,1.45,1.47,3.03,2.09,4.6.76,1.9.04,3.25-2.04,4.28-.41-.71-.87-1.33-1.15-2.03-3.07-7.51-8.13-13.56-14-18.99-1.22-1.13-2.65-2.13-4.14-2.87-3-1.48-6.05-.86-8.35,1.48-2.23,2.27-2.95,4.91-1.57,7.86.71,1.52,1.48,3.06,2.51,4.37,5.14,6.55,10.78,12.55,18.61,15.99.28.12.47.47.7.71Z"/>
  <path class="cls-1" d="M1464.19,699.96c-.27-.6-.61-1.16-.79-1.76-2.16-7.25-6.15-13.48-10.98-19.19-1.51-1.78-3.31-3.39-5.23-4.71-2.65-1.83-5.44-1.47-8,.43-2.57,1.9-3.64,4.49-2.77,7.55.55,1.92,1.43,3.81,2.51,5.49,4.5,7.01,9.7,13.39,17.05,17.51.4,1.2-.42,1.72-1.13,1.98-.72.26-1.73.39-2.36.08-1.5-.74-2.95-1.66-4.24-2.72-5.52-4.54-10.07-9.94-13.71-16.1-.09-.14-.15-.3-.23-.45-4.47-8.32-.68-16.51,8.58-18.55,2.26-.5,4.44-.15,6.32,1.09,1.68,1.1,3.29,2.4,4.65,3.86,4.63,4.97,8.4,10.55,11.17,16.77.68,1.53,1.18,3.16,1.61,4.78.53,1.97-.38,3.23-2.44,3.95Z"/>
  <path class="cls-1" d="M1291.3,820.1c-1.27-7.79-4.12-14.62-8.18-20.92-1.45-2.25-3.14-4.43-5.06-6.29-2.25-2.18-5.03-2.58-7.95-1.05-3.4,1.77-4.8,4.64-3.95,8.41.26,1.15.6,2.3,1.09,3.37,3.51,7.58,7.7,14.67,14.41,19.94.39.3.7.7,1.02,1.08.1.11.1.31.14.47-1.29,1.54-2.77,1.89-4.4.56-1.31-1.07-2.64-2.12-3.79-3.35-4.53-4.86-8.16-10.34-10.88-16.41-.55-1.23-1.02-2.51-1.39-3.81-1.36-4.78-.33-8.3,3.6-11.2,1.73-1.28,3.77-2.23,5.79-3.03,3.51-1.4,6.66-.36,9.35,2.07,1.12,1.01,2.12,2.19,3.02,3.41,4.13,5.63,7.3,11.77,9.3,18.48.48,1.6.68,3.3.89,4.97.22,1.83-.79,2.82-3.01,3.29Z"/>
  <path class="cls-1" d="M818.17,933.96c.67.99.94,1.4,1.23,1.8,3.91,5.37,3.17,12.1-1.79,16.31-3.58,3.03-9.51,3.35-13.79.73-4.39-2.68-6.18-7.07-4.99-12.22.5-2.18,1.01-2.42,4.32-1.96-.19,1.61-.5,3.23-.54,4.86-.11,4.12,2.14,7.1,5.76,7.84,3.91.79,7.38-1.18,8.83-5.05.29-.79.58-1.62.63-2.45.18-3.37-.29-6.47-3.92-7.99-1.18-.49-2.14-1.08-1.57-3.02.77-.34,1.82-.74,2.81-1.26,3.35-1.75,4.54-4.34,3.48-7.45-1.18-3.47-4.48-5.59-7.89-4.89-3.02.62-5.35,2.1-5.84,5.48-.09.64-.25,1.28-.42,2.09h-3.17c-.84-1.66-.61-3.36.13-4.85.65-1.32,1.59-2.64,2.73-3.55,4.25-3.39,11.38-3.16,15.59.34,3.9,3.24,4.53,8.68,1.37,12.7-.71.91-1.78,1.54-2.96,2.53Z"/>
  <path class="cls-1" d="M831.06,938.63c-.22,1.66-.46,2.99-.55,4.33-.15,2.11.53,4,1.71,5.72,1.83,2.67,4.58,3.84,7.43,3.21,3.49-.78,5.94-3.14,6.06-6.56.22-6.42.28-12.86.1-19.28-.1-3.64-3.21-6.23-6.68-6.35-3.15-.11-7.08,2.68-7.2,5.89-.04,1-.26,1.99-.42,3.2h-3.57c-.67-3.85.32-6.85,3.09-9.29,3.66-3.22,9.46-3.84,13.74-1.43,3.35,1.89,5.31,4.68,5.3,8.61-.01,5.92-.2,11.84-.13,17.76.08,7.18-8.87,12.91-15.9,9.86-5.29-2.29-8.49-7.98-7.41-13.6.42-2.16.98-2.46,4.44-2.08Z"/>
  <path class="cls-1" d="M983.75,913.51c-3.84-6.74,1.66-13.24,7.3-14.58,5.26-1.25,12.08.77,13.6,8,1.14,5.45,2.25,10.92,3.78,16.26,2.09,7.31-6.61,16.08-14.8,13.19-5.11-1.8-8.45-5.82-8.8-11.2-.14-2.16.5-2.69,3.58-2.87.32,1.6.66,3.23.98,4.86.33,1.73,1.26,3.11,2.49,4.31,2.59,2.54,5.84,3.03,8.8,1.38,2.94-1.64,4.56-4.76,3.85-8.1-1.23-5.77-2.63-11.51-3.99-17.25-.4-1.68-1.22-3.15-2.65-4.19-2.19-1.59-4.53-2.31-7.09-.94-2.51,1.35-4.34,3.23-4.31,6.32.01,1.17.14,2.34.23,3.82-1.04.34-2.04.68-2.98.99Z"/>
  <path class="cls-1" d="M669.88,909.55c.29-3.07,1.9-4.46,4.08-5.28,2.3-.86,4.71-1,6.89.19,1.88,1.02,3.54,2.44,5.52,3.85,1.81-2.55,1.69-5.81,3.43-8.63,1,.19,2.06.38,3.26.61-.1.94-.07,1.62-.25,2.23-2.35,7.94-4.8,15.85-7.06,23.82-1.54,5.44-4.78,6.92-9.73,7.09-1,.04-2.04-.08-3.02-.29-9.14-1.9-11.16-10.1-7.43-16.72.92-1.63,1.64-1.65,4.26-.12-.57,1.5-1.3,3.01-1.71,4.6-.69,2.72-.79,5.42,1.68,7.44,2.58,2.11,5.52,2.43,8.6,1.42,1.33-.44,2.33-1.41,2.76-2.79,1.24-4.04,2.57-8.06,3.6-12.15.65-2.58-.83-4.55-2.74-6.14-1.31-1.09-2.78-2.01-4.58-1.88-1.88.14-3.04,1.29-3.78,2.96-.12.27-.49.43-.99.84-.75-.28-1.64-.62-2.78-1.05Z"/>
  <path class="cls-1" d="M1479.77,387.04c-3.2-2.83-5.95-5.27-8.65-7.66-.09-1.75.98-2.51,2.4-3.31,7.31,6.08,14.45,12.45,21.85,18.78-.52.85-.8,1.43-1.2,1.93-.31.38-.76.63-1.43,1.17-2.93-2.41-5.88-4.83-9.04-7.43-.95.88-1.86,1.57-2.59,2.42-5.31,6.11-10.59,12.26-15.89,18.38-1.09,1.25-2.25,2.44-3.59,3.88-1.17-1.01-2.13-1.83-2.98-2.56.14-.63.11-1.03.3-1.24,5.58-6.54,11.19-13.07,16.79-19.6,1.2-1.4,2.39-2.81,4.02-4.74Z"/>
  <path class="cls-1" d="M1042.68,186.03c-1.5-.36-2.73-.65-4.2-1,.78-5.62,2.51-10.72,3.8-15.91,1.29-5.23,2.62-10.45,3.97-15.82-3.55-2.34-7.94-1.9-11.66-4.11.36-1.13.7-2.17,1.11-3.46,9.53,2.21,18.74,4.69,27.78,7.11.14.75.31,1.1.25,1.4-.34,2.02-.92,2.59-2.52,2.24-2.14-.46-4.24-1.12-6.37-1.6-1.11-.25-2.27-.28-3.74-.45-3.1,10.47-5.28,21-8.42,31.59Z"/>
  <path class="cls-1" d="M1306.94,786.6c1.27,1.38,2.92,2.27,4.85,2.99,6.74,2.5,8.45,11.24,3.31,16.24-1.08,1.05-2.36,1.93-3.69,2.65-5.81,3.15-10.87,1.91-14.36-3.7-4.38-7.03-8.6-14.16-12.86-21.27-.24-.41-.3-.92-.53-1.64.96-.61,1.9-1.2,3-1.9,1.12,1.77,2.13,3.31,3.08,4.89,3.16,5.2,6.29,10.42,9.44,15.63.44.72.84,1.47,1.31,2.17,3.5,5.3,8.99,5.48,12.9.43,1.13-1.45,1.44-3.08.84-4.78-1.06-2.98-2.69-5.46-6-6.36-.81-.22-1.64-.44-2.38-.83-1.74-.9-1.77-2.57-.1-4.01.24-.21.61-.28,1.19-.53Z"/>
  <path class="cls-1" d="M1467.04,676.28c1.04,1.53,1.82,2.84,2.76,4.02,1.92,2.42,4.52,3.46,7.58,3.27,4.11-.25,7.04-4.12,6.23-8.15-1.29-6.43-6.92-10.88-13.43-10.57-2.02.09-4.04.29-6.06.45-4.39.35-7.34-1.66-9.42-5.68.83-.69,1.57-1.31,2.23-1.86.53.17.96.17,1.13.38,2.4,2.89,5.48,3.65,9.08,3.21,2-.25,4.04-.19,6.07-.2,7.37-.04,14.43,8.12,14.04,15.21-.26,4.77-2.77,7.91-6.87,9.79-4.14,1.91-8.27,1.6-11.89-1.36-1.28-1.04-2.3-2.47-3.21-3.87-1.19-1.85-.88-2.55,1.75-4.65Z"/>
  <path class="cls-1" d="M624.98,875.04c.89.42,1.89.9,3.11,1.48-1.69,3.79-3.27,7.33-4.85,10.85-1.8,4.01-3.61,8.01-5.39,12.03-.55,1.23-1.1,2.48-1.46,3.78-.6,2.13-.03,4.03,1.57,5.56,1.78,1.69,3.98,2.56,6.39,2.8,1.6.16,3.01-.55,4.02-1.79,2-2.46,3.2-5.17,2.2-8.44-.2-.65-.37-1.3-.62-1.93-.49-1.27-.11-2.31.8-3.21.61-.6.87-.54,3.36.67-.14.87-.43,1.82-.4,2.75.03.82.43,1.62.64,2.43,1.98,7.74-4.72,14.36-12.36,12.23-2.31-.64-4.47-1.61-6.22-3.28-3.07-2.93-4.52-6.45-2.72-10.54,3.67-8.34,7.54-16.6,11.34-24.88.06-.14.25-.22.6-.52Z"/>
  <path class="cls-1" d="M956.48,923.38c.43,1.88,1.7,3.28,3.2,4.68,5.04,4.7,3.45,13.27-2.82,16.08-2.88,1.29-5.92,1.59-8.94.97-3.99-.82-6.6-3.32-7.5-7.36-.44-1.98-.65-4-.94-6.01-.84-5.68-1.69-11.37-2.51-17.06-.19-1.33-.29-2.68-.47-4.35,1.11-.25,2.15-.48,3.45-.78.31,1.03.65,1.79.77,2.58,1.12,7.52,2.2,15.05,3.3,22.58.12.83.28,1.67.47,2.49.58,2.48,1.88,4.47,4.51,4.94,3.1.55,6.15.19,8.41-2.34,1.9-2.13,1.38-7.38-.87-9.92-.67-.75-1.5-1.36-2.29-2-1.03-.84-1.48-1.92-1.04-3.14.48-1.32,1.71-1.47,3.26-1.36Z"/>
  <path class="cls-1" d="M1369.21,745.67c.68.57,1.35,1.33,2.19,1.77.88.46,1.92.59,2.88.91,6.04,1.96,8.73,9.77,5.05,14.89-2.14,2.97-5.03,4.96-8.68,5.72-3.62.75-6.66-.28-9.15-3-.34-.37-.66-.77-.94-1.19-4.96-7.24-9.92-14.48-15.04-21.97.87-.86,1.63-1.63,2.43-2.42.62.41,1.15.59,1.41.95,4.24,6.1,8.45,12.23,12.66,18.35.77,1.11,1.48,2.27,2.33,3.32,2.68,3.29,5.76,3.74,9.35,1.39.7-.46,1.38-.99,1.97-1.58,1.96-1.96,2.34-3.96,1.17-6.46-1.18-2.53-2.8-4.63-5.74-5.28-.66-.15-1.3-.39-1.96-.53-1.31-.27-2.18-1.06-2.29-2.35-.12-1.44,1.07-1.95,2.35-2.51Z"/>
  <path class="cls-1" d="M1327.23,754.55c1-.69,1.8-1.24,2.51-1.73.48.22.88.28,1.02.5,1.97,3.18,4.79,4.49,8.52,4.44,2.34-.03,4.72.36,7.03.8,7.01,1.33,11.75,9.7,11.24,15.6-.43,4.93-3.64,8.63-8.69,10.01-4.87,1.34-9.64-.39-12.43-4.56-.56-.84-1.06-1.74-1.45-2.67-.82-1.99-.46-2.7,2.26-4.44.76,1.45,1.45,2.94,2.29,4.33,1.6,2.63,3.99,4.09,7.08,4.24,4.42.22,7.74-3.36,7.28-7.77-.68-6.52-5.94-11.52-12.45-11.81-1.18-.05-2.37-.07-3.55-.03-4.91.19-8.51-1.72-10.67-6.93Z"/>
  <path class="cls-1" d="M704.69,902.85c.74.11,1.26.1,1.71.28.45.18.82.54,1.18.79.06.41.23.77.14,1.05-1.08,3.58-.08,6.62,2.32,9.35.89,1.01,1.64,2.14,2.41,3.25,4.46,6.4,3.07,13.13-.76,18.35-2.99,4.07-7.13,5.47-12.07,4.24-4.61-1.15-8.27-5.29-8.8-10.03-.31-2.78.54-5.34,1.95-7.7.92-1.54,1.67-1.59,4.48-.29-.53,1.17-1.1,2.33-1.6,3.52-.95,2.28-.96,4.63-.16,6.92,1.75,4.99,7.62,6.4,11.49,2.82,4.65-4.31,5.39-11.85,1.64-16.99-.99-1.36-2.13-2.61-3.14-3.97-2.95-3.99-3.12-6.12-.8-11.59Z"/>
  <path class="cls-1" d="M1539.08,612.88c1,1.39,1.64,2.64,2.62,3.52,1.22,1.11,2.61,2.24,4.13,2.76,2.85.97,5.66.72,7.94-1.67,2.29-2.41,2.3-5.13,1.18-8-2.21-5.64-7.6-8.92-13.62-8.29-1.34.14-2.65.51-3.98.72-5.67.9-7.48.18-11.37-4.48.07-.32.05-.73.24-.94.56-.59,1.21-1.09,1.78-1.58,5.68,3.68,5.7,3.78,12.89,2.63,8.47-1.35,13.68,3.05,16.57,8.1,4.08,7.13.75,15.13-7.07,17.28-5.25,1.44-10.73-.99-13.25-5.88-.77-1.5-.46-2.23,1.96-4.18Z"/>
  <path class="cls-1" d="M652.35,887.13c.91.22,1.86.45,2.71.65.16.51.42.89.33,1.13-1.44,3.71-.45,6.91,1.92,9.9.94,1.19,1.77,2.48,2.53,3.8,3.58,6.26,2.36,14.17-2.89,19.04-4.14,3.84-9.72,4.2-14.43.92-4.41-3.07-6.15-8.46-4.29-13.41.35-.94.79-1.88,1.31-2.74,1.12-1.86,1.85-1.89,4.64-.3-.7,1.47-1.48,2.92-2.12,4.44-1.07,2.52-.65,5,.6,7.33,2.16,4.04,7.28,4.85,10.82,1.78,4.7-4.07,5.78-11.36,2.41-16.57-.92-1.42-2.02-2.71-2.99-4.1-3.05-4.38-3.16-6.61-.54-11.87Z"/>
  <path class="cls-1" d="M1478.95,430.68c-.9-.84-1.83-1.72-2.65-2.48.28-1.6,21.97-22.77,26.42-26.02.41.22.92.37,1.27.7.6.56,1.1,1.23,1.61,1.83-2.32,3.26-22.24,22.69-26.66,25.98Z"/>
  <path class="cls-1" d="M1179.76,193.76c1.51.35,2.74.64,4.13.97-.09.93-.05,1.61-.24,2.21-3.43,11.1-6.88,22.2-10.42,33.58-1.52-.43-2.73-.77-4.24-1.19.49-4.22,2.17-7.9,3.29-11.73,1.19-4.04,2.48-8.06,3.74-12.08,1.21-3.84,2.44-7.68,3.73-11.76Z"/>
  <path class="cls-1" d="M1439,348.18c1.4,1.18,2.38,2,3.33,2.8-2.27,3.73-18.86,24.79-22.69,28.83-1.71.03-2.63-1.11-3.62-2.66,7.5-9.45,15.04-18.95,22.99-28.97Z"/>
  <path class="cls-1" d="M820.38,159.26h-4.08c-1.37-12.14-.94-24.28-1.76-36.27q2-.91,4.04-.82c.19.37.55.78.58,1.22.25,3.2.5,6.39.63,9.6.33,7.92.6,15.85.86,23.78.02.65-.14,1.3-.28,2.5Z"/>
</svg>